<?xml version="1.0" encoding="utf-8"?>
<!-- Generator: Adobe Illustrator 19.0.0, SVG Export Plug-In . SVG Version: 6.00 Build 0)  -->
<svg version="1.1" id="Layer_1" xmlns="http://www.w3.org/2000/svg" xmlns:xlink="http://www.w3.org/1999/xlink" x="0px" y="0px"
	 width="1400px" height="1400px" viewBox="0 0 1400 1400" enable-background="new 0 0 1400 1400" xml:space="preserve">
<g id="XMLID_1_">
	<polygon id="XMLID_332_" fill-rule="evenodd" clip-rule="evenodd" fill="#E6E7E8" points="48.1,876.3 319.4,719.6 822.9,428.9 
		1351.9,734.3 577.1,1181.7 	"/>
	<polygon id="XMLID_331_" fill-rule="evenodd" clip-rule="evenodd" fill="#79BFBB" points="781.1,246.6 644.6,327.4 1061.8,568.3 
		1200.1,488.5 	"/>
	<polygon id="XMLID_330_" fill-rule="evenodd" clip-rule="evenodd" fill="#79BFBB" points="172.3,793.3 386.2,669.7 783,440.6 
		1200,681.4 589.3,1034 	"/>
	<polygon id="XMLID_329_" fill-rule="evenodd" clip-rule="evenodd" fill="#8C9351" points="1200.2,767.4 783.2,1008.2 826.8,896.8 
		826.8,868.5 880.8,837.3 913.4,758.4 968.1,725.5 1061.9,568.3 1200.2,488.5 	"/>
	<polygon id="XMLID_328_" fill-rule="evenodd" clip-rule="evenodd" fill="#639E97" points="172.3,879.5 589.3,1120.2 589.3,1034 
		172.3,793.3 	"/>
	<polygon id="XMLID_327_" fill-rule="evenodd" clip-rule="evenodd" fill="#CDDA83" points="1105.9,434.1 1200.2,488.5 1061.9,568.3 
		967.7,513.9 	"/>
	<polygon id="XMLID_326_" fill-rule="evenodd" clip-rule="evenodd" fill="#9BA55F" points="732.5,814.1 732.5,842.4 826.8,896.8 
		826.8,868.5 	"/>
	<polygon id="XMLID_325_" fill-rule="evenodd" clip-rule="evenodd" fill="#CDDA83" points="826.8,896.8 732.5,842.4 495,979.6 
		589.3,1034 	"/>
	<polygon id="XMLID_324_" fill-rule="evenodd" clip-rule="evenodd" fill="#868F53" points="495,951.8 589.3,1006.2 589.3,1120.2 
		495,1065.8 	"/>
	<polygon id="XMLID_323_" fill-rule="evenodd" clip-rule="evenodd" fill="#CDDA83" points="781.1,246.6 875.5,301 737.2,380.8 
		643,326.4 	"/>
	<polygon id="XMLID_322_" fill-rule="evenodd" clip-rule="evenodd" fill="#CDDA83" points="454.9,594.3 400.9,625.5 455.4,656.9 
		534.8,656.9 591.5,624.1 	"/>
	<polygon id="XMLID_321_" fill-rule="evenodd" clip-rule="evenodd" fill="#9BA55F" points="643,326.4 551.1,484.8 643.4,538.1 
		737.2,380.8 	"/>
	<polygon id="XMLID_320_" fill-rule="evenodd" clip-rule="evenodd" fill="#CDDA83" points="551.1,484.8 454.9,541.7 506.6,571.5 
		591.5,571.1 643.4,538.1 	"/>
	<polygon id="XMLID_319_" fill-rule="evenodd" clip-rule="evenodd" fill="#9BA55F" points="454.9,541.7 506.6,571.5 506.6,624.1 
		454.9,594.3 	"/>
	<polygon id="XMLID_318_" fill-rule="evenodd" clip-rule="evenodd" fill="#868F53" points="591.5,571.1 506.6,571.5 506.6,624.1 
		591.5,624.1 	"/>
	<polygon id="XMLID_317_" fill-rule="evenodd" clip-rule="evenodd" fill="#8C9351" points="591.7,624.1 534.8,657 534.8,692.5 
		643.2,629.8 737.2,471 737.2,380.8 643.4,538.1 591.5,571.1 591.5,624.1 	"/>
	<polygon id="XMLID_316_" fill-rule="evenodd" clip-rule="evenodd" fill="#CDDA83" points="534.8,692 406.9,628.9 172.3,764.9 
		293.7,835.1 	"/>
	<polygon id="XMLID_315_" fill-rule="evenodd" clip-rule="evenodd" fill="#9BA55F" points="400.9,625.5 455.4,656.9 455.4,656.9 
		455.4,692.4 400.9,661 	"/>
	<polygon id="XMLID_314_" fill-rule="evenodd" clip-rule="evenodd" fill="#868F53" points="455.4,656.9 534.8,656.9 534.8,692.5 
		455.4,692.4 	"/>
	<polygon id="XMLID_313_" fill-rule="evenodd" clip-rule="evenodd" fill="#D4CBBA" points="737.2,380.8 969.5,514.9 969.5,535.6 
		737.2,401.5 	"/>
	<polygon id="XMLID_312_" fill-rule="evenodd" clip-rule="evenodd" fill="#E1D6C8" points="958.5,529.3 737.2,401.5 594.5,644.8 
		815,772 	"/>
	<polygon id="XMLID_311_" fill-rule="evenodd" clip-rule="evenodd" fill="#CDDA83" points="873.9,671.1 819.2,704 913.4,758.4 
		968.1,725.5 	"/>
	<polygon id="XMLID_310_" fill-rule="evenodd" clip-rule="evenodd" fill="#9BA55F" points="967.7,513.9 873.9,671.1 968.1,725.5 
		1061.9,568.3 	"/>
	<polygon id="XMLID_309_" fill-rule="evenodd" clip-rule="evenodd" fill="#D4CBBA" points="582,650.3 582.7,663.1 797.2,787 
		815,784.8 	"/>
	<polygon id="XMLID_308_" fill-rule="evenodd" clip-rule="evenodd" fill="#F5F9EA" points="582.7,663.1 528,696 740.8,818.9 
		795.1,785.7 	"/>
	<polygon id="XMLID_307_" fill-rule="evenodd" clip-rule="evenodd" fill="#D4CBBA" points="528,696 732.5,814.1 732.5,842.4 
		528,724.3 	"/>
	<polygon id="XMLID_306_" fill-rule="evenodd" clip-rule="evenodd" fill="#CDDA83" points="787.2,781.1 732.5,814.1 826.8,868.5 
		880.8,837.3 	"/>
	<polygon id="XMLID_305_" fill-rule="evenodd" clip-rule="evenodd" fill="#F5F9EA" points="594.5,644.8 582,650.3 794.8,773.2 
		806.9,767.4 	"/>
	<polygon id="XMLID_304_" fill-rule="evenodd" clip-rule="evenodd" fill="#9BA55F" points="819.2,704 787.2,781.1 880.8,837.3 
		913.4,758.4 	"/>
	<polygon id="XMLID_303_" fill-rule="evenodd" clip-rule="evenodd" fill="#9BA55F" points="528,696 293.7,835.1 293.7,863.5 
		528,724.3 	"/>
	<polygon id="XMLID_302_" fill-rule="evenodd" clip-rule="evenodd" fill="#868F53" points="172.3,764.9 293.7,835.1 293.7,863.5 
		293.7,949.7 172.3,879.5 172.3,793.3 	"/>
	<polygon id="XMLID_301_" fill-rule="evenodd" clip-rule="evenodd" fill="#8C9351" points="1200.2,767.4 589.3,1120.2 589.3,1006.2 
		715.4,933.1 715.4,960.6 1199.7,680.9 	"/>
	<polygon id="XMLID_300_" fill-rule="evenodd" clip-rule="evenodd" fill="#CDDA83" points="660.2,899.9 591.2,895 495,951.8 
		589.3,1006.2 715.4,933.1 	"/>
	<polygon id="XMLID_299_" fill-rule="evenodd" clip-rule="evenodd" fill="#79BFBB" points="575.1,739.1 575.1,751.6 547.8,735.8 
		547.8,723.3 	"/>
	<polygon id="XMLID_298_" fill-rule="evenodd" clip-rule="evenodd" fill="#C4B69F" points="547.8,723.3 547.8,735.8 558.7,729.6 	
		"/>
	<polygon id="XMLID_297_" fill-rule="evenodd" clip-rule="evenodd" fill="#79BFBB" points="620.6,765.3 620.6,777.8 593.3,762 
		593.3,749.6 	"/>
	<polygon id="XMLID_296_" fill-rule="evenodd" clip-rule="evenodd" fill="#C4B69F" points="593.3,749.6 593.3,762 604.1,755.8 	"/>
	<polygon id="XMLID_295_" fill-rule="evenodd" clip-rule="evenodd" fill="#79BFBB" points="667.6,792.4 667.6,804.9 640.3,789.2 
		640.3,776.7 	"/>
	<polygon id="XMLID_294_" fill-rule="evenodd" clip-rule="evenodd" fill="#C4B69F" points="640.3,776.7 640.3,789.2 651.1,782.9 	
		"/>
	<polygon id="XMLID_293_" fill-rule="evenodd" clip-rule="evenodd" fill="#79BFBB" points="714.5,819.6 714.5,832 687.2,816.3 
		687.2,803.8 	"/>
	<polygon id="XMLID_292_" fill-rule="evenodd" clip-rule="evenodd" fill="#C4B69F" points="687.2,803.8 687.2,816.3 698,810 	"/>
	<polygon id="XMLID_291_" fill-rule="evenodd" clip-rule="evenodd" fill="#459286" points="527.9,709.9 528,709.9 528,709.9 
		527.9,709.9 	"/>
	<polygon id="XMLID_290_" fill-rule="evenodd" clip-rule="evenodd" fill="#B3B4B4" points="672.7,841.8 674.2,842.6 672.5,843.6 
		671,842.7 	"/>
	<polygon id="XMLID_289_" fill-rule="evenodd" clip-rule="evenodd" fill="#F5F9EA" points="1023.7,481.5 967.7,513.9 737.2,380.8 
		793.3,348.5 	"/>
	<polygon id="XMLID_288_" fill-rule="evenodd" clip-rule="evenodd" fill="#E1D6C8" points="778.5,385.1 810.8,366.3 843.2,385.1 
		810.8,403.7 	"/>
	<polygon id="XMLID_287_" fill-rule="evenodd" clip-rule="evenodd" fill="#C4B69F" points="810.8,403.7 843.2,385.1 843.2,392.8 
		810.8,411.5 	"/>
	<polygon id="XMLID_286_" fill-rule="evenodd" clip-rule="evenodd" fill="#D4CBBA" points="810.8,403.7 778.5,385.1 778.5,392.8 
		810.8,411.4 	"/>
	<polygon id="XMLID_285_" fill-rule="evenodd" clip-rule="evenodd" fill="#E1D6C8" points="843.2,422.5 875.6,403.7 907.9,422.5 
		875.6,441.2 	"/>
	<polygon id="XMLID_284_" fill-rule="evenodd" clip-rule="evenodd" fill="#C4B69F" points="875.6,441.2 907.9,422.5 907.9,430.3 
		875.6,448.9 	"/>
	<polygon id="XMLID_283_" fill-rule="evenodd" clip-rule="evenodd" fill="#D4CBBA" points="875.6,441.2 843.2,422.5 843.2,430.2 
		875.6,448.9 	"/>
	<polygon id="XMLID_282_" fill-rule="evenodd" clip-rule="evenodd" fill="#E1D6C8" points="907.9,460 940.3,441.2 972.7,460 
		940.3,478.6 	"/>
	<polygon id="XMLID_281_" fill-rule="evenodd" clip-rule="evenodd" fill="#C4B69F" points="940.3,478.6 972.7,460 972.7,467.7 
		940.3,486.4 	"/>
	<polygon id="XMLID_280_" fill-rule="evenodd" clip-rule="evenodd" fill="#D4CBBA" points="940.3,478.6 907.9,460 907.9,467.7 
		940.3,486.3 	"/>
	<path id="XMLID_279_" fill-rule="evenodd" clip-rule="evenodd" fill="#736250" d="M553.6,939.9v9.9c0,1.6-3.1,1.7-3.1,0v-9.9
		l1.6,0.1L553.6,939.9z"/>
	<path id="XMLID_278_" fill-rule="evenodd" clip-rule="evenodd" fill="#909E4F" d="M551.2,906.7c2.8,10.4,5.6,20.8,8.4,31.2
		c-5.4,4-10.7,3.8-16.1,0C546.1,927.5,548.7,917.1,551.2,906.7"/>
	<path id="XMLID_277_" fill-rule="evenodd" clip-rule="evenodd" fill="#C0CB78" d="M549.3,940.5L549.3,940.5L549.3,940.5
		c-0.1,0-0.2,0-0.2-0.1l0,0c-0.1,0-0.1,0-0.2-0.1l0,0c-0.1,0-0.1,0-0.2-0.1l0,0c-0.1,0-0.1,0-0.2-0.1l0,0c-0.1,0-0.1-0.1-0.2-0.1
		l0,0c-0.1,0-0.1,0-0.2-0.1l0,0c-0.1,0-0.1,0-0.2-0.1l0,0c-0.1,0-0.1-0.1-0.2-0.1l0,0c-0.1,0-0.1-0.1-0.2-0.1l0,0
		c-0.1,0-0.1-0.1-0.2-0.1l0,0c-0.1,0-0.1-0.1-0.2-0.1l0,0c-0.1,0-0.1-0.1-0.2-0.1l0,0c-0.1,0-0.1-0.1-0.2-0.1l0,0
		c-0.1,0-0.2-0.1-0.2-0.1l0,0h0c-0.1,0-0.2-0.1-0.2-0.1l0,0c-0.1,0-0.2-0.1-0.2-0.1l0,0c-0.1,0-0.2-0.1-0.2-0.1l0,0
		c-0.1-0.1-0.2-0.1-0.2-0.1l0,0c-0.1,0-0.2-0.1-0.2-0.1l0,0c-0.1-0.1-0.1-0.1-0.2-0.1l0,0c-0.1,0-0.2-0.1-0.2-0.1l0,0
		c-0.1-0.1-0.2-0.1-0.2-0.2l0,0c-0.1-0.1-0.2-0.1-0.2-0.2c2.6-10.4,5.2-20.8,7.7-31.2L549.3,940.5z"/>
	<path id="XMLID_276_" fill-rule="evenodd" clip-rule="evenodd" fill="#909E4F" d="M551.3,904.9c2.5,8.7,5.1,17.5,7.6,26.2
		c-4.9,3.4-9.7,3.2-14.6,0C546.6,922.4,548.9,913.6,551.3,904.9"/>
	<path id="XMLID_275_" fill-rule="evenodd" clip-rule="evenodd" fill="#C0CB78" d="M548.3,933c-1.3-0.4-2.7-1-4-1.9
		c2.3-8.7,4.7-17.4,7-26.2L548.3,933z"/>
	<path id="XMLID_274_" fill-rule="evenodd" clip-rule="evenodd" fill="#909E4F" d="M551.3,901.1c2,6.9,4.1,13.7,6.2,20.6
		c-4,2.6-7.9,2.5-11.9,0C547.5,914.8,549.4,908,551.3,901.1"/>
	<path id="XMLID_273_" fill-rule="evenodd" clip-rule="evenodd" fill="#C0CB78" d="M548.5,923.1c-1.1-0.3-1.8-0.7-2.9-1.4
		c1.9-6.9,3.8-13.7,5.7-20.6L548.5,923.1z"/>
	<path id="XMLID_272_" fill-rule="evenodd" clip-rule="evenodd" fill="#736250" d="M600.1,914.8v15.5c0,2.4-4.9,2.6-4.9,0v-15.5
		l2.4,0.1L600.1,914.8z"/>
	<path id="XMLID_271_" fill-rule="evenodd" clip-rule="evenodd" fill="#909E4F" d="M596.5,862.9c4.4,16.2,8.7,32.5,13,48.7
		c-8.4,6.3-16.8,5.9-25.1,0C588.4,895.3,592.4,879.1,596.5,862.9"/>
	<path id="XMLID_270_" fill-rule="evenodd" clip-rule="evenodd" fill="#C0CB78" d="M593.4,915.7L593.4,915.7L593.4,915.7
		c-0.2,0-0.3-0.1-0.4-0.1l-0.1,0c-0.1,0-0.2,0-0.3-0.1l-0.1,0c-0.1,0-0.2-0.1-0.4-0.1l-0.1,0c-0.1,0-0.2,0-0.3-0.1l0,0
		c-0.1,0-0.2-0.1-0.4-0.1l0,0c-0.1,0-0.2-0.1-0.3-0.1l0,0c-0.1,0-0.2-0.1-0.4-0.1l0,0c-0.1-0.1-0.2-0.1-0.4-0.1l0,0
		c-0.1-0.1-0.2-0.1-0.4-0.1l0,0c-0.1,0-0.2-0.1-0.3-0.1l-0.1,0c-0.1,0-0.2-0.1-0.3-0.2l-0.1,0c-0.1-0.1-0.2-0.1-0.3-0.2l-0.1,0
		c-0.1,0-0.2-0.1-0.3-0.2l0,0c-0.1-0.1-0.2-0.1-0.4-0.2l0,0h0c-0.1-0.1-0.2-0.1-0.4-0.2l0,0c-0.1-0.1-0.3-0.1-0.4-0.2l0,0
		c-0.1-0.1-0.3-0.1-0.4-0.2l0,0c-0.1-0.1-0.3-0.1-0.4-0.2l0,0c-0.1-0.1-0.3-0.1-0.4-0.2l0,0c-0.1-0.1-0.2-0.2-0.4-0.2l0,0
		c-0.1-0.1-0.3-0.1-0.4-0.2l0,0c-0.1-0.1-0.2-0.2-0.4-0.2l0,0c-0.1-0.1-0.3-0.2-0.4-0.3c4-16.2,8.1-32.5,12.1-48.7L593.4,915.7z"/>
	<path id="XMLID_269_" fill-rule="evenodd" clip-rule="evenodd" fill="#909E4F" d="M596.5,860.1c3.9,13.6,7.9,27.3,11.8,40.9
		c-7.6,5.3-15.2,5-22.8,0C589.2,887.4,592.9,873.7,596.5,860.1"/>
	<path id="XMLID_268_" fill-rule="evenodd" clip-rule="evenodd" fill="#C0CB78" d="M591.8,904c-2.1-0.6-4.2-1.6-6.3-3
		c3.7-13.6,7.3-27.2,11-40.9L591.8,904z"/>
	<path id="XMLID_267_" fill-rule="evenodd" clip-rule="evenodd" fill="#909E4F" d="M596.6,854.2c3.2,10.7,6.4,21.4,9.6,32.1
		c-6.2,4.1-12.3,3.9-18.5,0C590.6,875.6,593.6,864.9,596.6,854.2"/>
	<path id="XMLID_266_" fill-rule="evenodd" clip-rule="evenodd" fill="#C0CB78" d="M592.2,888.5c-1.7-0.5-2.8-1.1-4.5-2.2
		c3-10.7,5.9-21.4,8.9-32.1L592.2,888.5z"/>
	<path id="XMLID_265_" fill-rule="evenodd" clip-rule="evenodd" fill="#736250" d="M579.3,959.2v15.5c0,2.4-4.9,2.6-4.9,0v-15.5
		l2.4,0.1L579.3,959.2z"/>
	<path id="XMLID_264_" fill-rule="evenodd" clip-rule="evenodd" fill="#909E4F" d="M575.7,907.2c4.4,16.2,8.7,32.5,13,48.7
		c-8.4,6.3-16.8,5.9-25.1,0C567.6,939.7,571.6,923.4,575.7,907.2"/>
	<path id="XMLID_263_" fill-rule="evenodd" clip-rule="evenodd" fill="#C0CB78" d="M572.6,960.1L572.6,960.1L572.6,960.1
		c-0.2,0-0.3-0.1-0.4-0.1l-0.1,0c-0.1,0-0.2,0-0.3-0.1l-0.1,0c-0.1,0-0.2-0.1-0.4-0.1l-0.1,0c-0.1,0-0.2,0-0.3-0.1l0,0
		c-0.1,0-0.2-0.1-0.4-0.1l0,0c-0.1,0-0.2-0.1-0.3-0.1l0,0c-0.1,0-0.2-0.1-0.4-0.1l0,0c-0.1-0.1-0.2-0.1-0.4-0.1l0,0
		c-0.1-0.1-0.2-0.1-0.4-0.1l0,0c-0.1,0-0.2-0.1-0.3-0.1l-0.1,0c-0.1,0-0.2-0.1-0.3-0.2l-0.1,0c-0.1-0.1-0.2-0.1-0.3-0.2l-0.1,0
		c-0.1,0-0.2-0.1-0.3-0.2l0,0c-0.1-0.1-0.2-0.1-0.4-0.2l0,0h0c-0.1-0.1-0.2-0.1-0.4-0.2l0,0c-0.1-0.1-0.3-0.1-0.4-0.2l0,0
		c-0.1-0.1-0.3-0.1-0.4-0.2l0,0c-0.1-0.1-0.3-0.1-0.4-0.2l0,0c-0.1-0.1-0.3-0.1-0.4-0.2l0,0c-0.1-0.1-0.2-0.2-0.4-0.2l0,0
		c-0.1-0.1-0.3-0.1-0.4-0.2l0,0c-0.1-0.1-0.2-0.2-0.4-0.2l0,0c-0.1-0.1-0.3-0.2-0.4-0.3c4-16.2,8.1-32.5,12.1-48.7L572.6,960.1z"/>
	<path id="XMLID_262_" fill-rule="evenodd" clip-rule="evenodd" fill="#909E4F" d="M575.7,904.5c3.9,13.6,7.9,27.3,11.8,40.9
		c-7.6,5.3-15.2,5-22.8,0C568.4,931.7,572,918.1,575.7,904.5"/>
	<path id="XMLID_261_" fill-rule="evenodd" clip-rule="evenodd" fill="#C0CB78" d="M571,948.3c-2.1-0.6-4.2-1.6-6.3-3
		c3.7-13.6,7.3-27.2,11-40.9L571,948.3z"/>
	<path id="XMLID_260_" fill-rule="evenodd" clip-rule="evenodd" fill="#909E4F" d="M575.8,898.5c3.2,10.7,6.4,21.4,9.6,32.1
		c-6.2,4.1-12.3,3.9-18.5,0C569.8,919.9,572.8,909.3,575.8,898.5"/>
	<path id="XMLID_259_" fill-rule="evenodd" clip-rule="evenodd" fill="#C0CB78" d="M571.4,932.8c-1.7-0.5-2.8-1.1-4.5-2.2
		c3-10.7,5.9-21.4,8.9-32.1L571.4,932.8z"/>
	<path id="XMLID_258_" fill-rule="evenodd" clip-rule="evenodd" fill="#736250" d="M616.9,945.6v10.5c0,1.6-3.3,1.8-3.3,0v-10.5
		l1.6,0.1L616.9,945.6z"/>
	<path id="XMLID_257_" fill-rule="evenodd" clip-rule="evenodd" fill="#909E4F" d="M614.5,910.4c2.9,11,5.9,22,8.8,33
		c-5.7,4.2-11.3,4-17,0C609,932.4,611.7,921.4,614.5,910.4"/>
	<path id="XMLID_256_" fill-rule="evenodd" clip-rule="evenodd" fill="#C0CB78" d="M612.4,946.2L612.4,946.2L612.4,946.2
		c-0.1,0-0.2,0-0.3-0.1l0,0c-0.1,0-0.1,0-0.2-0.1l0,0c-0.1,0-0.2,0-0.2-0.1l0,0c-0.1,0-0.1,0-0.2-0.1l0,0c-0.1,0-0.2-0.1-0.2-0.1
		l0,0c-0.1,0-0.1,0-0.2-0.1l0,0c-0.1,0-0.2,0-0.2-0.1l0,0c-0.1,0-0.2-0.1-0.2-0.1l0,0c-0.1,0-0.2-0.1-0.2-0.1l0,0
		c-0.1,0-0.1-0.1-0.2-0.1l0,0c-0.1,0-0.2-0.1-0.2-0.1l0,0c-0.1,0-0.2-0.1-0.2-0.1l0,0c-0.1,0-0.2-0.1-0.2-0.1l0,0
		c-0.1,0-0.2-0.1-0.2-0.1l0,0h0c-0.1,0-0.2-0.1-0.2-0.1l0,0c-0.1,0-0.2-0.1-0.2-0.1l0,0c-0.1,0-0.2-0.1-0.2-0.1l0,0
		c-0.1-0.1-0.2-0.1-0.2-0.2l0,0c-0.1,0-0.2-0.1-0.3-0.2l0,0c-0.1-0.1-0.2-0.1-0.2-0.2l0,0c-0.1,0-0.2-0.1-0.2-0.2l0,0
		c-0.1-0.1-0.2-0.1-0.3-0.2l0,0c-0.1-0.1-0.2-0.1-0.2-0.2c2.7-11,5.5-22,8.2-33L612.4,946.2z"/>
	<path id="XMLID_255_" fill-rule="evenodd" clip-rule="evenodd" fill="#909E4F" d="M614.5,908.6c2.7,9.2,5.3,18.5,8,27.7
		c-5.1,3.6-10.3,3.4-15.4,0C609.5,927,612,917.8,614.5,908.6"/>
	<path id="XMLID_254_" fill-rule="evenodd" clip-rule="evenodd" fill="#C0CB78" d="M611.3,938.3c-1.4-0.4-2.8-1.1-4.3-2
		c2.5-9.2,5-18.4,7.4-27.7L611.3,938.3z"/>
	<path id="XMLID_253_" fill-rule="evenodd" clip-rule="evenodd" fill="#909E4F" d="M614.5,904.6c2.2,7.3,4.3,14.5,6.5,21.7
		c-4.2,2.8-8.4,2.6-12.5,0C610.5,919.1,612.5,911.8,614.5,904.6"/>
	<path id="XMLID_252_" fill-rule="evenodd" clip-rule="evenodd" fill="#C0CB78" d="M611.5,927.8c-1.2-0.3-1.9-0.8-3-1.5
		c2-7.2,4-14.5,6-21.7L611.5,927.8z"/>
	<path id="XMLID_251_" fill-rule="evenodd" clip-rule="evenodd" fill="#736250" d="M664.4,932.6v9.9c0,1.6-3.1,1.7-3.1,0v-9.9
		l1.6,0.1L664.4,932.6z"/>
	<path id="XMLID_250_" fill-rule="evenodd" clip-rule="evenodd" fill="#909E4F" d="M662,899.3c2.8,10.4,5.6,20.8,8.4,31.2
		c-5.4,4-10.7,3.8-16.1,0C656.9,920.1,659.4,909.7,662,899.3"/>
	<path id="XMLID_249_" fill-rule="evenodd" clip-rule="evenodd" fill="#C0CB78" d="M660.1,933.2L660.1,933.2L660.1,933.2
		c-0.1,0-0.2,0-0.2-0.1l0,0c-0.1,0-0.1,0-0.2-0.1l0,0c-0.1,0-0.1,0-0.2-0.1l0,0c-0.1,0-0.1,0-0.2-0.1l0,0c-0.1,0-0.1-0.1-0.2-0.1
		l0,0c-0.1,0-0.1,0-0.2-0.1l0,0c-0.1,0-0.1,0-0.2-0.1l0,0c-0.1,0-0.1-0.1-0.2-0.1l0,0c-0.1,0-0.1-0.1-0.2-0.1l0,0
		c-0.1,0-0.1-0.1-0.2-0.1l0,0c-0.1,0-0.1-0.1-0.2-0.1l0,0c-0.1,0-0.1-0.1-0.2-0.1l0,0c-0.1,0-0.1-0.1-0.2-0.1l0,0
		c-0.1,0-0.2-0.1-0.2-0.1l0,0h0c-0.1,0-0.2-0.1-0.2-0.1l0,0c-0.1,0-0.2-0.1-0.2-0.1l0,0c-0.1,0-0.2-0.1-0.2-0.1l0,0
		c-0.1-0.1-0.2-0.1-0.2-0.1l0,0c-0.1,0-0.2-0.1-0.2-0.1l0,0c-0.1-0.1-0.1-0.1-0.2-0.1l0,0c-0.1,0-0.2-0.1-0.2-0.1l0,0
		c-0.1-0.1-0.2-0.1-0.2-0.2l0,0c-0.1-0.1-0.2-0.1-0.2-0.2c2.6-10.4,5.2-20.8,7.7-31.2L660.1,933.2z"/>
	<path id="XMLID_248_" fill-rule="evenodd" clip-rule="evenodd" fill="#909E4F" d="M662.1,897.5c2.5,8.7,5.1,17.5,7.6,26.2
		c-4.9,3.4-9.7,3.2-14.6,0C657.4,915,659.7,906.3,662.1,897.5"/>
	<path id="XMLID_247_" fill-rule="evenodd" clip-rule="evenodd" fill="#C0CB78" d="M659.1,925.6c-1.3-0.4-2.7-1-4-1.9
		c2.3-8.7,4.7-17.4,7-26.2L659.1,925.6z"/>
	<path id="XMLID_246_" fill-rule="evenodd" clip-rule="evenodd" fill="#909E4F" d="M662.1,893.7c2,6.9,4.1,13.7,6.2,20.6
		c-4,2.6-7.9,2.5-11.9,0C658.3,907.4,660.2,900.6,662.1,893.7"/>
	<path id="XMLID_245_" fill-rule="evenodd" clip-rule="evenodd" fill="#C0CB78" d="M659.3,915.7c-1.1-0.3-1.8-0.7-2.9-1.4
		c1.9-6.9,3.8-13.7,5.7-20.6L659.3,915.7z"/>
	<path id="XMLID_244_" fill-rule="evenodd" clip-rule="evenodd" fill="#736250" d="M640.2,906.6v19.5c0,3.1-6.1,3.3-6.1,0v-19.5
		l3.1,0.1L640.2,906.6z"/>
	<path id="XMLID_243_" fill-rule="evenodd" clip-rule="evenodd" fill="#909E4F" d="M635.6,841.2c5.5,20.4,10.9,40.9,16.4,61.3
		c-10.5,7.9-21.1,7.4-31.6,0C625.4,882.1,630.5,861.7,635.6,841.2"/>
	<path id="XMLID_242_" fill-rule="evenodd" clip-rule="evenodd" fill="#C0CB78" d="M631.8,907.8L631.8,907.8L631.8,907.8
		c-0.2,0-0.4-0.1-0.5-0.1l-0.1,0c-0.1,0-0.3-0.1-0.4-0.1l-0.1,0c-0.1,0-0.3-0.1-0.4-0.1l-0.1,0c-0.1,0-0.3-0.1-0.4-0.1l-0.1,0
		c-0.1-0.1-0.3-0.1-0.4-0.1l-0.1,0c-0.1,0-0.3-0.1-0.4-0.1l-0.1,0c-0.1,0-0.3-0.1-0.4-0.1l-0.1,0c-0.1-0.1-0.3-0.1-0.4-0.2l-0.1,0
		c-0.1-0.1-0.3-0.1-0.4-0.2l-0.1,0c-0.1,0-0.3-0.1-0.4-0.2l-0.1,0c-0.1-0.1-0.3-0.1-0.4-0.2l-0.1,0c-0.1-0.1-0.3-0.1-0.4-0.2l-0.1,0
		c-0.1-0.1-0.3-0.1-0.4-0.2l0,0c-0.1-0.1-0.3-0.2-0.5-0.2l0,0h0c-0.2-0.1-0.3-0.2-0.5-0.2l0,0c-0.2-0.1-0.3-0.2-0.5-0.3l0,0
		c-0.1-0.1-0.3-0.2-0.5-0.2l0,0c-0.1-0.1-0.3-0.2-0.5-0.3l0,0c-0.1-0.1-0.3-0.2-0.5-0.3l0,0c-0.1-0.1-0.3-0.2-0.5-0.3l0,0
		c-0.1-0.1-0.3-0.2-0.5-0.3l0,0c-0.2-0.1-0.3-0.2-0.5-0.3l0,0c-0.1-0.1-0.3-0.2-0.5-0.3c5.1-20.4,10.2-40.9,15.2-61.3L631.8,907.8z"
		/>
	<path id="XMLID_241_" fill-rule="evenodd" clip-rule="evenodd" fill="#909E4F" d="M635.7,837.8c5,17.2,9.9,34.3,14.9,51.5
		c-9.6,6.6-19.2,6.2-28.7,0C626.4,872.1,631.1,854.9,635.7,837.8"/>
	<path id="XMLID_240_" fill-rule="evenodd" clip-rule="evenodd" fill="#C0CB78" d="M629.8,893c-2.6-0.8-5.3-2.1-7.9-3.8
		c4.6-17.1,9.2-34.3,13.8-51.5L629.8,893z"/>
	<path id="XMLID_239_" fill-rule="evenodd" clip-rule="evenodd" fill="#909E4F" d="M635.8,830.3c4,13.5,8,27,12.1,40.4
		c-7.8,5.2-15.5,4.9-23.3,0C628.3,857.3,632,843.8,635.8,830.3"/>
	<path id="XMLID_238_" fill-rule="evenodd" clip-rule="evenodd" fill="#C0CB78" d="M630.2,873.5c-2.1-0.6-3.5-1.4-5.6-2.8
		c3.7-13.5,7.5-26.9,11.2-40.4L630.2,873.5z"/>
	<path id="XMLID_237_" fill-rule="evenodd" clip-rule="evenodd" fill="#E1D6C8" d="M735.1,757.8h-31.4v23h0
		c0.3,4.6,7.2,8.2,15.7,8.2c8.5,0,15.4-3.7,15.7-8.2l0,0V757.8z"/>
	<path id="XMLID_236_" fill-rule="evenodd" clip-rule="evenodd" fill="#D4CBBA" d="M719.4,749.4c-8.7,0-15.7,3.8-15.7,8.5
		c0,4.7,7,8.5,15.7,8.5c8.7,0,15.7-3.8,15.7-8.5C735.1,753.2,728,749.4,719.4,749.4"/>
	<path id="XMLID_235_" fill-rule="evenodd" clip-rule="evenodd" fill="#E1D6C8" d="M690.9,732.3h-31.4v23h0
		c0.3,4.6,7.2,8.2,15.7,8.2c8.5,0,15.4-3.7,15.7-8.2h0V732.3z"/>
	<path id="XMLID_234_" fill-rule="evenodd" clip-rule="evenodd" fill="#D4CBBA" d="M675.2,723.9c-8.7,0-15.7,3.8-15.7,8.5
		c0,4.7,7,8.5,15.7,8.5c8.6,0,15.7-3.8,15.7-8.5C690.9,727.7,683.9,723.9,675.2,723.9"/>
	<path id="XMLID_233_" fill-rule="evenodd" clip-rule="evenodd" fill="#E1D6C8" d="M647.3,707.2H616v23h0c0.3,4.6,7.2,8.2,15.7,8.2
		c8.5,0,15.4-3.7,15.7-8.2V707.2z"/>
	<path id="XMLID_232_" fill-rule="evenodd" clip-rule="evenodd" fill="#D4CBBA" d="M631.7,698.7c-8.7,0-15.7,3.8-15.7,8.5
		c0,4.7,7,8.5,15.7,8.5c8.6,0,15.7-3.8,15.7-8.5C647.3,702.5,640.3,698.7,631.7,698.7"/>
	<path id="XMLID_231_" fill-rule="evenodd" clip-rule="evenodd" fill="#E1D6C8" d="M603.8,682.1h-31.4v23h0
		c0.3,4.6,7.2,8.2,15.7,8.2c8.5,0,15.4-3.6,15.7-8.2h0V682.1z"/>
	<path id="XMLID_230_" fill-rule="evenodd" clip-rule="evenodd" fill="#D4CBBA" d="M588.1,673.6c-8.7,0-15.7,3.8-15.7,8.5
		c0,4.7,7,8.5,15.7,8.5c8.7,0,15.7-3.8,15.7-8.5C603.8,677.4,596.8,673.6,588.1,673.6"/>
	<path id="XMLID_229_" fill-rule="evenodd" clip-rule="evenodd" fill="#736250" d="M441.8,606.1v17.1c0,2.7-5.4,2.9-5.4,0v-17.1
		l2.7,0.1L441.8,606.1z"/>
	<path id="XMLID_228_" fill-rule="evenodd" clip-rule="evenodd" fill="#909E4F" d="M437.8,548.8c4.8,17.9,9.6,35.8,14.4,53.7
		c-9.2,6.9-18.5,6.5-27.7,0C428.9,584.6,433.4,566.7,437.8,548.8"/>
	<path id="XMLID_227_" fill-rule="evenodd" clip-rule="evenodd" fill="#C0CB78" d="M434.4,607.1L434.4,607.1L434.4,607.1
		c-0.2,0-0.3-0.1-0.4-0.1l-0.1,0c-0.1,0-0.2-0.1-0.4-0.1l-0.1,0c-0.1,0-0.3-0.1-0.4-0.1l-0.1,0c-0.1,0-0.2-0.1-0.4-0.1l-0.1,0
		c-0.1-0.1-0.3-0.1-0.4-0.1l-0.1,0c-0.1,0-0.2-0.1-0.4-0.1l-0.1,0c-0.1,0-0.3-0.1-0.4-0.1l-0.1,0c-0.1-0.1-0.3-0.1-0.4-0.1l-0.1,0
		c-0.1-0.1-0.3-0.1-0.4-0.1l-0.1,0c-0.1,0-0.2-0.1-0.4-0.1l-0.1,0c-0.1-0.1-0.3-0.1-0.4-0.2l-0.1,0c-0.1-0.1-0.3-0.1-0.4-0.2l-0.1,0
		c-0.1-0.1-0.3-0.1-0.4-0.2l0,0c-0.1-0.1-0.3-0.1-0.4-0.2l0,0h0c-0.1-0.1-0.3-0.1-0.4-0.2l0,0c-0.1-0.1-0.3-0.1-0.4-0.2l0,0
		c-0.1-0.1-0.3-0.1-0.4-0.2l0,0c-0.1-0.1-0.3-0.2-0.4-0.3l0,0c-0.1-0.1-0.3-0.2-0.4-0.3l0,0c-0.1-0.1-0.3-0.2-0.4-0.3l0,0
		c-0.1-0.1-0.3-0.2-0.4-0.3l0,0c-0.1-0.1-0.3-0.2-0.4-0.3l0,0c-0.1-0.1-0.3-0.2-0.4-0.3c4.4-17.9,8.9-35.8,13.3-53.7L434.4,607.1z"
		/>
	<path id="XMLID_226_" fill-rule="evenodd" clip-rule="evenodd" fill="#909E4F" d="M437.8,545.8c4.3,15,8.7,30.1,13.1,45.1
		c-8.4,5.8-16.8,5.5-25.2,0C429.8,575.9,433.8,560.8,437.8,545.8"/>
	<path id="XMLID_225_" fill-rule="evenodd" clip-rule="evenodd" fill="#C0CB78" d="M432.7,594.2c-2.3-0.7-4.6-1.8-6.9-3.3
		c4-15,8.1-30,12.1-45.1L432.7,594.2z"/>
	<path id="XMLID_224_" fill-rule="evenodd" clip-rule="evenodd" fill="#909E4F" d="M437.9,539.3c3.5,11.8,7,23.6,10.6,35.4
		c-6.8,4.5-13.6,4.3-20.4,0C431.4,562.9,434.6,551.1,437.9,539.3"/>
	<path id="XMLID_223_" fill-rule="evenodd" clip-rule="evenodd" fill="#C0CB78" d="M433.1,577.1c-1.9-0.6-3.1-1.2-4.9-2.4
		c3.3-11.8,6.5-23.6,9.8-35.4L433.1,577.1z"/>
	<path id="XMLID_222_" fill-rule="evenodd" clip-rule="evenodd" fill="#736250" d="M537.3,625.4V636c0,1.7-3.3,1.8-3.3,0v-10.6
		l1.7,0.1L537.3,625.4z"/>
	<path id="XMLID_221_" fill-rule="evenodd" clip-rule="evenodd" fill="#909E4F" d="M534.8,590c3,11.1,5.9,22.2,8.9,33.2
		c-5.7,4.3-11.4,4-17.1,0C529.3,612.1,532.1,601.1,534.8,590"/>
	<path id="XMLID_220_" fill-rule="evenodd" clip-rule="evenodd" fill="#C0CB78" d="M532.8,626.1L532.8,626.1L532.8,626.1
		c-0.1,0-0.2,0-0.3-0.1l0,0c-0.1,0-0.1,0-0.2-0.1l0,0c-0.1,0-0.2,0-0.2-0.1l0,0c-0.1,0-0.1,0-0.2-0.1l0,0c-0.1,0-0.2-0.1-0.2-0.1
		l0,0c-0.1,0-0.1,0-0.2-0.1l0,0c-0.1,0-0.2,0-0.2-0.1l0,0c-0.1,0-0.2-0.1-0.2-0.1l0,0c-0.1,0-0.2-0.1-0.2-0.1l0,0
		c-0.1,0-0.1-0.1-0.2-0.1l0,0c-0.1,0-0.2-0.1-0.2-0.1l0,0c-0.1,0-0.2-0.1-0.2-0.1l0,0c-0.1,0-0.2-0.1-0.2-0.1l0,0
		c-0.1,0-0.2-0.1-0.2-0.1l0,0h0c-0.1,0-0.2-0.1-0.2-0.1l0,0c-0.1,0-0.2-0.1-0.2-0.1l0,0c-0.1,0-0.2-0.1-0.2-0.1l0,0
		c-0.1-0.1-0.2-0.1-0.2-0.2l0,0c-0.1,0-0.2-0.1-0.3-0.2l0,0c-0.1-0.1-0.2-0.1-0.3-0.2l0,0c-0.1,0-0.2-0.1-0.3-0.2l0,0
		c-0.1-0.1-0.2-0.1-0.3-0.2l0,0c-0.1-0.1-0.2-0.1-0.3-0.2c2.7-11.1,5.5-22.1,8.2-33.2L532.8,626.1z"/>
	<path id="XMLID_219_" fill-rule="evenodd" clip-rule="evenodd" fill="#909E4F" d="M534.9,588.1c2.7,9.3,5.4,18.6,8.1,27.9
		c-5.2,3.6-10.4,3.4-15.6,0C529.9,606.7,532.4,597.4,534.9,588.1"/>
	<path id="XMLID_218_" fill-rule="evenodd" clip-rule="evenodd" fill="#C0CB78" d="M531.7,618c-1.4-0.4-2.9-1.1-4.3-2.1
		c2.5-9.3,5-18.6,7.5-27.9L531.7,618z"/>
	<path id="XMLID_217_" fill-rule="evenodd" clip-rule="evenodd" fill="#909E4F" d="M534.9,584.1c2.2,7.3,4.4,14.6,6.6,21.9
		c-4.2,2.8-8.4,2.6-12.6,0C530.9,598.7,532.9,591.4,534.9,584.1"/>
	<path id="XMLID_216_" fill-rule="evenodd" clip-rule="evenodd" fill="#C0CB78" d="M531.9,607.5c-1.2-0.4-1.9-0.8-3.1-1.5
		c2-7.3,4-14.6,6.1-21.9L531.9,607.5z"/>
	<path id="XMLID_215_" fill-rule="evenodd" clip-rule="evenodd" fill="#736250" d="M491.7,628v15.4c0,2.4-4.8,2.6-4.8,0V628l2.4,0.1
		L491.7,628z"/>
	<path id="XMLID_214_" fill-rule="evenodd" clip-rule="evenodd" fill="#909E4F" d="M488,576.3c4.3,16.1,8.6,32.3,13,48.4
		c-8.3,6.2-16.7,5.9-25,0C480,608.6,484,592.5,488,576.3"/>
	<path id="XMLID_213_" fill-rule="evenodd" clip-rule="evenodd" fill="#C0CB78" d="M485,628.9L485,628.9L485,628.9
		c-0.2,0-0.3-0.1-0.4-0.1l-0.1,0c-0.1,0-0.2,0-0.3-0.1l-0.1,0c-0.1,0-0.2-0.1-0.3-0.1l-0.1,0c-0.1,0-0.2,0-0.3-0.1l0,0
		c-0.1,0-0.2-0.1-0.3-0.1l0,0c-0.1,0-0.2-0.1-0.3-0.1l0,0c-0.1,0-0.2-0.1-0.3-0.1l0,0c-0.1,0-0.2-0.1-0.3-0.1l0,0
		c-0.1,0-0.2-0.1-0.3-0.1l0,0c-0.1,0-0.2-0.1-0.3-0.1l-0.1,0c-0.1,0-0.2-0.1-0.3-0.2l-0.1,0c-0.1-0.1-0.2-0.1-0.3-0.2l-0.1,0
		c-0.1,0-0.2-0.1-0.3-0.2l0,0c-0.1-0.1-0.2-0.1-0.4-0.2l0,0h0c-0.1-0.1-0.2-0.1-0.4-0.2l0,0c-0.1-0.1-0.2-0.1-0.4-0.2l0,0
		c-0.1-0.1-0.2-0.1-0.4-0.2l0,0c-0.1-0.1-0.2-0.1-0.4-0.2l0,0c-0.1-0.1-0.2-0.1-0.4-0.2l0,0c-0.1-0.1-0.2-0.2-0.4-0.2l0,0
		c-0.1-0.1-0.2-0.1-0.4-0.2l0,0c-0.1-0.1-0.2-0.2-0.4-0.2l0,0c-0.1-0.1-0.2-0.2-0.4-0.3c4-16.1,8-32.3,12-48.4L485,628.9z"/>
	<path id="XMLID_212_" fill-rule="evenodd" clip-rule="evenodd" fill="#909E4F" d="M488.1,573.6c3.9,13.6,7.9,27.1,11.8,40.6
		c-7.6,5.2-15.1,4.9-22.7,0C480.8,600.7,484.4,587.1,488.1,573.6"/>
	<path id="XMLID_211_" fill-rule="evenodd" clip-rule="evenodd" fill="#C0CB78" d="M483.4,617.2c-2.1-0.6-4.2-1.6-6.3-3
		c3.6-13.5,7.3-27.1,10.9-40.6L483.4,617.2z"/>
	<path id="XMLID_210_" fill-rule="evenodd" clip-rule="evenodd" fill="#909E4F" d="M488.1,567.7c3.2,10.7,6.4,21.3,9.6,31.9
		c-6.1,4.1-12.3,3.9-18.4,0C482.2,589,485.2,578.3,488.1,567.7"/>
	<path id="XMLID_209_" fill-rule="evenodd" clip-rule="evenodd" fill="#C0CB78" d="M483.7,601.8c-1.7-0.5-2.8-1.1-4.5-2.2
		c2.9-10.6,5.9-21.3,8.9-31.9L483.7,601.8z"/>
	<path id="XMLID_208_" fill-rule="evenodd" clip-rule="evenodd" fill="#736250" d="M514.2,523.9v15.4c0,2.4-4.8,2.6-4.8,0v-15.4
		l2.4,0.1L514.2,523.9z"/>
	<path id="XMLID_207_" fill-rule="evenodd" clip-rule="evenodd" fill="#909E4F" d="M510.6,472.2c4.3,16.1,8.6,32.3,13,48.4
		c-8.3,6.2-16.7,5.9-25,0C502.6,504.5,506.6,488.4,510.6,472.2"/>
	<path id="XMLID_206_" fill-rule="evenodd" clip-rule="evenodd" fill="#C0CB78" d="M507.6,524.8L507.6,524.8L507.6,524.8
		c-0.2,0-0.3-0.1-0.4-0.1l-0.1,0c-0.1,0-0.2,0-0.3-0.1l-0.1,0c-0.1,0-0.2-0.1-0.3-0.1l-0.1,0c-0.1,0-0.2,0-0.3-0.1l0,0
		c-0.1,0-0.2-0.1-0.3-0.1l0,0c-0.1,0-0.2-0.1-0.3-0.1l0,0c-0.1,0-0.2-0.1-0.3-0.1l0,0c-0.1,0-0.2-0.1-0.3-0.1l0,0
		c-0.1,0-0.2-0.1-0.3-0.1l0,0c-0.1,0-0.2-0.1-0.3-0.1l-0.1,0c-0.1,0-0.2-0.1-0.3-0.2l-0.1,0c-0.1-0.1-0.2-0.1-0.3-0.2l-0.1,0
		c-0.1,0-0.2-0.1-0.3-0.2l0,0c-0.1-0.1-0.2-0.1-0.4-0.2l0,0h0c-0.1-0.1-0.2-0.1-0.4-0.2l0,0c-0.1-0.1-0.2-0.1-0.4-0.2l0,0
		c-0.1-0.1-0.2-0.1-0.4-0.2l0,0c-0.1-0.1-0.2-0.1-0.4-0.2l0,0c-0.1-0.1-0.2-0.1-0.4-0.2l0,0c-0.1-0.1-0.2-0.2-0.4-0.2l0,0
		c-0.1-0.1-0.2-0.1-0.4-0.2l0,0c-0.1-0.1-0.2-0.2-0.4-0.2l0,0c-0.1-0.1-0.2-0.2-0.4-0.3c4-16.1,8-32.3,12-48.4L507.6,524.8z"/>
	<path id="XMLID_205_" fill-rule="evenodd" clip-rule="evenodd" fill="#909E4F" d="M510.6,469.5c3.9,13.6,7.9,27.1,11.8,40.6
		c-7.6,5.2-15.1,4.9-22.7,0C503.3,496.6,507,483,510.6,469.5"/>
	<path id="XMLID_204_" fill-rule="evenodd" clip-rule="evenodd" fill="#C0CB78" d="M506,513.1c-2.1-0.6-4.2-1.6-6.3-3
		c3.6-13.5,7.3-27.1,10.9-40.6L506,513.1z"/>
	<path id="XMLID_203_" fill-rule="evenodd" clip-rule="evenodd" fill="#909E4F" d="M510.7,463.6c3.2,10.7,6.4,21.3,9.6,31.9
		c-6.1,4.1-12.3,3.9-18.4,0C504.8,484.9,507.7,474.2,510.7,463.6"/>
	<path id="XMLID_202_" fill-rule="evenodd" clip-rule="evenodd" fill="#C0CB78" d="M506.3,497.7c-1.7-0.5-2.8-1.1-4.5-2.2
		c2.9-10.6,5.9-21.3,8.9-31.9L506.3,497.7z"/>
	<path id="XMLID_201_" fill-rule="evenodd" clip-rule="evenodd" fill="#736250" d="M548,493.6v10.6c0,1.7-3.3,1.8-3.3,0v-10.6
		l1.7,0.1L548,493.6z"/>
	<path id="XMLID_200_" fill-rule="evenodd" clip-rule="evenodd" fill="#909E4F" d="M545.5,458.2c3,11.1,5.9,22.2,8.9,33.2
		c-5.7,4.3-11.4,4-17.1,0C540,480.3,542.7,469.2,545.5,458.2"/>
	<path id="XMLID_199_" fill-rule="evenodd" clip-rule="evenodd" fill="#C0CB78" d="M543.4,494.2L543.4,494.2L543.4,494.2
		c-0.1,0-0.2,0-0.3-0.1l0,0c-0.1,0-0.1,0-0.2-0.1l0,0c-0.1,0-0.2,0-0.2-0.1l0,0c-0.1,0-0.1,0-0.2-0.1l0,0c-0.1,0-0.2-0.1-0.2-0.1
		l0,0c-0.1,0-0.1,0-0.2-0.1l0,0c-0.1,0-0.2,0-0.2-0.1l0,0c-0.1,0-0.2-0.1-0.2-0.1l0,0c-0.1,0-0.2-0.1-0.2-0.1l0,0
		c-0.1,0-0.1-0.1-0.2-0.1l0,0c-0.1,0-0.2-0.1-0.2-0.1l0,0c-0.1,0-0.2-0.1-0.2-0.1l0,0c-0.1,0-0.2-0.1-0.2-0.1l0,0
		c-0.1,0-0.2-0.1-0.2-0.1l0,0h0c-0.1,0-0.2-0.1-0.2-0.1l0,0c-0.1,0-0.2-0.1-0.2-0.1l0,0c-0.1,0-0.2-0.1-0.2-0.1l0,0
		c-0.1-0.1-0.2-0.1-0.2-0.2l0,0c-0.1,0-0.2-0.1-0.3-0.2l0,0c-0.1-0.1-0.2-0.1-0.3-0.2l0,0c-0.1,0-0.2-0.1-0.3-0.2l0,0
		c-0.1-0.1-0.2-0.1-0.3-0.2l0,0c-0.1-0.1-0.2-0.1-0.3-0.2c2.7-11.1,5.5-22.2,8.2-33.2L543.4,494.2z"/>
	<path id="XMLID_198_" fill-rule="evenodd" clip-rule="evenodd" fill="#909E4F" d="M545.5,456.3c2.7,9.3,5.4,18.6,8.1,27.9
		c-5.2,3.6-10.4,3.4-15.6,0C540.5,474.9,543,465.6,545.5,456.3"/>
	<path id="XMLID_197_" fill-rule="evenodd" clip-rule="evenodd" fill="#C0CB78" d="M542.3,486.2c-1.4-0.4-2.9-1.1-4.3-2.1
		c2.5-9.3,5-18.6,7.5-27.9L542.3,486.2z"/>
	<path id="XMLID_196_" fill-rule="evenodd" clip-rule="evenodd" fill="#909E4F" d="M545.6,452.3c2.2,7.3,4.4,14.6,6.6,21.9
		c-4.2,2.8-8.4,2.6-12.6,0C541.5,466.9,543.5,459.6,545.6,452.3"/>
	<path id="XMLID_195_" fill-rule="evenodd" clip-rule="evenodd" fill="#C0CB78" d="M542.5,475.7c-1.2-0.4-1.9-0.8-3.1-1.5
		c2-7.3,4-14.6,6.1-21.9L542.5,475.7z"/>
	<path id="XMLID_194_" fill-rule="evenodd" clip-rule="evenodd" fill="#736250" d="M580.7,534.5v13c0,2-4.1,2.2-4.1,0v-13l2,0.1
		L580.7,534.5z"/>
	<path id="XMLID_193_" fill-rule="evenodd" clip-rule="evenodd" fill="#909E4F" d="M577.6,491c3.6,13.6,7.3,27.2,10.9,40.8
		c-7,5.3-14,4.9-21.1,0C570.9,518.2,574.3,504.6,577.6,491"/>
	<path id="XMLID_192_" fill-rule="evenodd" clip-rule="evenodd" fill="#C0CB78" d="M575.1,535.3L575.1,535.3L575.1,535.3
		c-0.1,0-0.2-0.1-0.3-0.1l-0.1,0c-0.1,0-0.2,0-0.3-0.1l0,0c-0.1,0-0.2-0.1-0.3-0.1l-0.1,0c-0.1,0-0.2,0-0.3-0.1l0,0
		c-0.1,0-0.2-0.1-0.3-0.1l0,0c-0.1,0-0.2-0.1-0.3-0.1l0,0c-0.1,0-0.2-0.1-0.3-0.1l0,0c-0.1,0-0.2-0.1-0.3-0.1l0,0
		c-0.1,0-0.2-0.1-0.3-0.1l0,0c-0.1,0-0.2-0.1-0.3-0.1l0,0c-0.1,0-0.2-0.1-0.3-0.1l0,0c-0.1,0-0.2-0.1-0.3-0.1l0,0
		c-0.1,0-0.2-0.1-0.3-0.1l0,0c-0.1-0.1-0.2-0.1-0.3-0.2l0,0h0c-0.1-0.1-0.2-0.1-0.3-0.2l0,0c-0.1-0.1-0.2-0.1-0.3-0.2l0,0
		c-0.1-0.1-0.2-0.1-0.3-0.2l0,0c-0.1-0.1-0.2-0.1-0.3-0.2l0,0c-0.1-0.1-0.2-0.1-0.3-0.2l0,0c-0.1-0.1-0.2-0.1-0.3-0.2l0,0
		c-0.1-0.1-0.2-0.1-0.3-0.2l0,0c-0.1-0.1-0.2-0.1-0.3-0.2l0,0c-0.1-0.1-0.2-0.2-0.3-0.2c3.4-13.6,6.8-27.2,10.1-40.8L575.1,535.3z"
		/>
	<path id="XMLID_191_" fill-rule="evenodd" clip-rule="evenodd" fill="#909E4F" d="M577.7,488.7c3.3,11.4,6.6,22.8,9.9,34.2
		c-6.4,4.4-12.7,4.1-19.1,0C571.6,511.5,574.6,500.1,577.7,488.7"/>
	<path id="XMLID_190_" fill-rule="evenodd" clip-rule="evenodd" fill="#C0CB78" d="M573.8,525.5c-1.8-0.5-3.5-1.4-5.3-2.5
		c3.1-11.4,6.1-22.8,9.2-34.2L573.8,525.5z"/>
	<path id="XMLID_189_" fill-rule="evenodd" clip-rule="evenodd" fill="#909E4F" d="M577.8,483.7c2.7,9,5.4,17.9,8,26.9
		c-5.2,3.5-10.3,3.2-15.5,0C572.8,501.7,575.3,492.7,577.8,483.7"/>
	<path id="XMLID_188_" fill-rule="evenodd" clip-rule="evenodd" fill="#C0CB78" d="M574,512.5c-1.4-0.4-2.3-0.9-3.8-1.8
		c2.5-9,5-17.9,7.5-26.9L574,512.5z"/>
	<path id="XMLID_187_" fill-rule="evenodd" clip-rule="evenodd" fill="#736250" d="M543.1,546.5v10.6c0,1.7-3.3,1.8-3.3,0v-10.6
		l1.7,0.1L543.1,546.5z"/>
	<path id="XMLID_186_" fill-rule="evenodd" clip-rule="evenodd" fill="#909E4F" d="M540.6,511.1c3,11.1,5.9,22.2,8.9,33.2
		c-5.7,4.3-11.4,4-17.1,0C535.1,533.2,537.9,522.2,540.6,511.1"/>
	<path id="XMLID_185_" fill-rule="evenodd" clip-rule="evenodd" fill="#C0CB78" d="M538.6,547.2L538.6,547.2L538.6,547.2
		c-0.1,0-0.2,0-0.3-0.1l0,0c-0.1,0-0.1,0-0.2-0.1l0,0c-0.1,0-0.2,0-0.2-0.1l0,0c-0.1,0-0.1,0-0.2-0.1l0,0c-0.1,0-0.2-0.1-0.2-0.1
		l0,0c-0.1,0-0.1,0-0.2-0.1l0,0c-0.1,0-0.2,0-0.2-0.1l0,0c-0.1,0-0.2-0.1-0.2-0.1l0,0c-0.1,0-0.2-0.1-0.2-0.1l0,0
		c-0.1,0-0.1-0.1-0.2-0.1l0,0c-0.1,0-0.2-0.1-0.2-0.1l0,0c-0.1,0-0.2-0.1-0.2-0.1l0,0c-0.1,0-0.2-0.1-0.2-0.1l0,0
		c-0.1,0-0.2-0.1-0.2-0.1l0,0h0c-0.1,0-0.2-0.1-0.2-0.1l0,0c-0.1,0-0.2-0.1-0.2-0.1l0,0c-0.1,0-0.2-0.1-0.2-0.1l0,0
		c-0.1-0.1-0.2-0.1-0.2-0.2l0,0c-0.1,0-0.2-0.1-0.3-0.2l0,0c-0.1-0.1-0.2-0.1-0.3-0.2l0,0c-0.1,0-0.2-0.1-0.3-0.2l0,0
		c-0.1-0.1-0.2-0.1-0.3-0.2l0,0c-0.1-0.1-0.2-0.1-0.3-0.2c2.7-11.1,5.5-22.2,8.2-33.2L538.6,547.2z"/>
	<path id="XMLID_184_" fill-rule="evenodd" clip-rule="evenodd" fill="#909E4F" d="M540.7,509.2c2.7,9.3,5.4,18.6,8.1,27.9
		c-5.2,3.6-10.4,3.4-15.6,0C535.7,527.8,538.2,518.5,540.7,509.2"/>
	<path id="XMLID_183_" fill-rule="evenodd" clip-rule="evenodd" fill="#C0CB78" d="M537.5,539.1c-1.4-0.4-2.9-1.1-4.3-2.1
		c2.5-9.3,5-18.6,7.5-27.9L537.5,539.1z"/>
	<path id="XMLID_182_" fill-rule="evenodd" clip-rule="evenodd" fill="#909E4F" d="M540.7,505.2c2.2,7.3,4.4,14.6,6.6,21.9
		c-4.2,2.8-8.4,2.6-12.6,0C536.7,519.8,538.7,512.5,540.7,505.2"/>
	<path id="XMLID_181_" fill-rule="evenodd" clip-rule="evenodd" fill="#C0CB78" d="M537.7,528.6c-1.2-0.4-1.9-0.8-3.1-1.5
		c2-7.3,4-14.6,6.1-21.9L537.7,528.6z"/>
	<path id="XMLID_180_" fill-rule="evenodd" clip-rule="evenodd" fill="#736250" d="M855,665.2L855,665.2c-0.4,0-0.7,0.2-0.9,0.5
		c-0.1-0.3-0.4-0.5-0.7-0.5c-0.4,0-0.8,0.3-0.8,0.8v31.8c0,2.4,3.5,2.9,3.5,0v-31.5C856.1,665.7,855.6,665.2,855,665.2"/>
	<path id="XMLID_179_" fill-rule="evenodd" clip-rule="evenodd" fill="#909E4F" d="M854.5,639.5c-9.9,0-17.9,8-17.9,17.9
		c0,9.9,8,18,17.9,18c9.9,0,17.9-8,17.9-18C872.4,647.6,864.4,639.5,854.5,639.5"/>
	<path id="XMLID_178_" fill-rule="evenodd" clip-rule="evenodd" fill="#C0CB78" d="M850.4,640c-8,1.8-13.9,9-13.9,17.5
		c0,7.4,4.5,13.7,10.8,16.5c7.9-1.9,13.9-9,13.9-17.5C861.2,649.1,856.7,642.8,850.4,640"/>
	<path id="XMLID_177_" fill-rule="evenodd" clip-rule="evenodd" fill="#736250" d="M248.5,760.6V776c0,2.4-4.8,2.6-4.8,0v-15.4
		l2.4,0.1L248.5,760.6z"/>
	<path id="XMLID_176_" fill-rule="evenodd" clip-rule="evenodd" fill="#909E4F" d="M244.9,708.9c4.3,16.1,8.6,32.3,13,48.4
		c-8.3,6.2-16.7,5.9-25,0C236.8,741.2,240.9,725,244.9,708.9"/>
	<path id="XMLID_175_" fill-rule="evenodd" clip-rule="evenodd" fill="#C0CB78" d="M241.9,761.5L241.9,761.5L241.9,761.5
		c-0.2,0-0.3-0.1-0.4-0.1l-0.1,0c-0.1,0-0.2,0-0.3-0.1l-0.1,0c-0.1,0-0.2-0.1-0.3-0.1l-0.1,0c-0.1,0-0.2,0-0.3-0.1l0,0
		c-0.1,0-0.2-0.1-0.3-0.1l0,0c-0.1,0-0.2-0.1-0.3-0.1l0,0c-0.1,0-0.2-0.1-0.3-0.1l0,0c-0.1,0-0.2-0.1-0.3-0.1l0,0
		c-0.1,0-0.2-0.1-0.3-0.1l0,0c-0.1,0-0.2-0.1-0.3-0.1l-0.1,0c-0.1,0-0.2-0.1-0.3-0.2l-0.1,0c-0.1-0.1-0.2-0.1-0.3-0.2l-0.1,0
		c-0.1,0-0.2-0.1-0.3-0.2l0,0c-0.1-0.1-0.2-0.1-0.4-0.2l0,0h0c-0.1-0.1-0.2-0.1-0.4-0.2l0,0c-0.1-0.1-0.2-0.1-0.4-0.2l0,0
		c-0.1-0.1-0.2-0.1-0.4-0.2l0,0c-0.1-0.1-0.2-0.1-0.4-0.2l0,0c-0.1-0.1-0.2-0.1-0.4-0.2l0,0c-0.1-0.1-0.2-0.2-0.4-0.2l0,0
		c-0.1-0.1-0.2-0.1-0.4-0.2l0,0c-0.1-0.1-0.2-0.2-0.4-0.2l0,0c-0.1-0.1-0.2-0.2-0.4-0.3c4-16.1,8-32.3,12-48.4L241.9,761.5z"/>
	<path id="XMLID_174_" fill-rule="evenodd" clip-rule="evenodd" fill="#909E4F" d="M244.9,706.2c3.9,13.6,7.9,27.1,11.8,40.6
		c-7.6,5.2-15.1,4.9-22.7,0C237.6,733.3,241.3,719.7,244.9,706.2"/>
	<path id="XMLID_173_" fill-rule="evenodd" clip-rule="evenodd" fill="#C0CB78" d="M240.3,749.8c-2.1-0.6-4.2-1.6-6.3-3
		c3.6-13.5,7.3-27.1,10.9-40.6L240.3,749.8z"/>
	<path id="XMLID_172_" fill-rule="evenodd" clip-rule="evenodd" fill="#909E4F" d="M245,700.3c3.2,10.7,6.4,21.3,9.6,31.9
		c-6.1,4.1-12.3,3.9-18.4,0C239.1,721.6,242,710.9,245,700.3"/>
	<path id="XMLID_171_" fill-rule="evenodd" clip-rule="evenodd" fill="#C0CB78" d="M240.6,734.4c-1.7-0.5-2.8-1.1-4.5-2.2
		c2.9-10.6,5.9-21.3,8.9-31.9L240.6,734.4z"/>
	<path id="XMLID_170_" fill-rule="evenodd" clip-rule="evenodd" fill="#736250" d="M293.5,735.4v15.4c0,2.4-4.8,2.6-4.8,0v-15.4
		l2.4,0.1L293.5,735.4z"/>
	<path id="XMLID_169_" fill-rule="evenodd" clip-rule="evenodd" fill="#909E4F" d="M289.9,683.8c4.3,16.1,8.6,32.3,13,48.4
		c-8.3,6.2-16.7,5.9-25,0C281.8,716.1,285.9,699.9,289.9,683.8"/>
	<path id="XMLID_168_" fill-rule="evenodd" clip-rule="evenodd" fill="#C0CB78" d="M286.8,736.4L286.8,736.4L286.8,736.4
		c-0.2,0-0.3-0.1-0.4-0.1l-0.1,0c-0.1,0-0.2,0-0.3-0.1l-0.1,0c-0.1,0-0.2-0.1-0.3-0.1l-0.1,0c-0.1,0-0.2,0-0.3-0.1l0,0
		c-0.1,0-0.2-0.1-0.3-0.1l0,0c-0.1,0-0.2-0.1-0.3-0.1l0,0c-0.1,0-0.2-0.1-0.3-0.1l0,0c-0.1,0-0.2-0.1-0.3-0.1l0,0
		c-0.1,0-0.2-0.1-0.3-0.1l0,0c-0.1,0-0.2-0.1-0.3-0.1l-0.1,0c-0.1,0-0.2-0.1-0.3-0.2l-0.1,0c-0.1-0.1-0.2-0.1-0.3-0.2l-0.1,0
		c-0.1,0-0.2-0.1-0.3-0.2l0,0c-0.1-0.1-0.2-0.1-0.4-0.2l0,0h0c-0.1-0.1-0.2-0.1-0.4-0.2l0,0c-0.1-0.1-0.2-0.1-0.4-0.2l0,0
		c-0.1-0.1-0.2-0.1-0.4-0.2l0,0c-0.1-0.1-0.2-0.1-0.4-0.2l0,0c-0.1-0.1-0.2-0.1-0.4-0.2l0,0c-0.1-0.1-0.2-0.2-0.4-0.2l0,0
		c-0.1-0.1-0.2-0.1-0.4-0.2l0,0c-0.1-0.1-0.2-0.2-0.4-0.2l0,0c-0.1-0.1-0.2-0.2-0.4-0.3c4-16.1,8-32.3,12-48.4L286.8,736.4z"/>
	<path id="XMLID_167_" fill-rule="evenodd" clip-rule="evenodd" fill="#909E4F" d="M289.9,681c3.9,13.6,7.9,27.1,11.8,40.6
		c-7.6,5.2-15.1,4.9-22.7,0C282.6,708.1,286.3,694.6,289.9,681"/>
	<path id="XMLID_166_" fill-rule="evenodd" clip-rule="evenodd" fill="#C0CB78" d="M285.2,724.7c-2.1-0.6-4.2-1.6-6.3-3
		c3.6-13.5,7.3-27.1,10.9-40.6L285.2,724.7z"/>
	<path id="XMLID_165_" fill-rule="evenodd" clip-rule="evenodd" fill="#909E4F" d="M290,675.1c3.2,10.7,6.4,21.3,9.6,31.9
		c-6.1,4.1-12.3,3.9-18.4,0C284.1,696.4,287,685.8,290,675.1"/>
	<path id="XMLID_164_" fill-rule="evenodd" clip-rule="evenodd" fill="#C0CB78" d="M285.6,709.3c-1.7-0.5-2.8-1.1-4.5-2.2
		c2.9-10.6,5.9-21.3,8.9-31.9L285.6,709.3z"/>
	<path id="XMLID_163_" fill-rule="evenodd" clip-rule="evenodd" fill="#736250" d="M340.4,708.2v17.3c0,2.7-5.4,2.9-5.4,0v-17.3
		l2.7,0.1L340.4,708.2z"/>
	<path id="XMLID_162_" fill-rule="evenodd" clip-rule="evenodd" fill="#909E4F" d="M336.3,650.2c4.9,18.1,9.7,36.2,14.6,54.3
		c-9.3,7-18.7,6.6-28,0C327.3,686.5,331.8,668.4,336.3,650.2"/>
	<path id="XMLID_161_" fill-rule="evenodd" clip-rule="evenodd" fill="#C0CB78" d="M332.9,709.2L332.9,709.2L332.9,709.2
		c-0.2,0-0.3-0.1-0.4-0.1l-0.1,0c-0.1,0-0.2-0.1-0.4-0.1l-0.1,0c-0.1,0-0.3-0.1-0.4-0.1l-0.1,0c-0.1,0-0.2-0.1-0.4-0.1l-0.1,0
		c-0.1-0.1-0.3-0.1-0.4-0.1l-0.1,0c-0.1,0-0.2-0.1-0.4-0.1l-0.1,0c-0.1,0-0.3-0.1-0.4-0.1l-0.1,0c-0.1-0.1-0.3-0.1-0.4-0.1l-0.1,0
		c-0.1-0.1-0.3-0.1-0.4-0.1l-0.1,0c-0.1,0-0.2-0.1-0.4-0.1l-0.1,0c-0.1-0.1-0.3-0.1-0.4-0.2l-0.1,0c-0.1-0.1-0.3-0.1-0.4-0.2l-0.1,0
		c-0.1-0.1-0.3-0.1-0.4-0.2l0,0c-0.1-0.1-0.3-0.1-0.4-0.2l0,0h0c-0.2-0.1-0.3-0.1-0.4-0.2l0,0c-0.2-0.1-0.3-0.1-0.4-0.2l0,0
		c-0.1-0.1-0.3-0.1-0.4-0.2l0,0c-0.1-0.1-0.3-0.2-0.4-0.3l0,0c-0.1-0.1-0.3-0.2-0.4-0.3l0,0c-0.1-0.1-0.3-0.2-0.4-0.3l0,0
		c-0.1-0.1-0.3-0.2-0.4-0.3l0,0c-0.1-0.1-0.3-0.2-0.4-0.3l0,0c-0.1-0.1-0.3-0.2-0.4-0.3c4.5-18.1,9-36.2,13.5-54.3L332.9,709.2z"/>
	<path id="XMLID_160_" fill-rule="evenodd" clip-rule="evenodd" fill="#909E4F" d="M336.4,647.2c4.4,15.2,8.8,30.4,13.2,45.6
		c-8.5,5.9-17,5.5-25.5,0C328.2,677.6,332.3,662.4,336.4,647.2"/>
	<path id="XMLID_159_" fill-rule="evenodd" clip-rule="evenodd" fill="#C0CB78" d="M331.1,696.1c-2.3-0.7-4.7-1.8-7-3.4
		c4.1-15.2,8.2-30.4,12.2-45.6L331.1,696.1z"/>
	<path id="XMLID_158_" fill-rule="evenodd" clip-rule="evenodd" fill="#909E4F" d="M336.4,640.6c3.6,12,7.1,23.9,10.7,35.8
		c-6.9,4.6-13.8,4.3-20.7,0C329.8,664.5,333.1,652.5,336.4,640.6"/>
	<path id="XMLID_157_" fill-rule="evenodd" clip-rule="evenodd" fill="#C0CB78" d="M331.5,678.8c-1.9-0.6-3.1-1.3-5-2.5
		c3.3-11.9,6.6-23.9,9.9-35.8L331.5,678.8z"/>
	<path id="XMLID_156_" fill-rule="evenodd" clip-rule="evenodd" fill="#736250" d="M378.7,690.5v10.7c0,1.7-3.3,1.8-3.3,0v-10.7
		l1.7,0.1L378.7,690.5z"/>
	<path id="XMLID_155_" fill-rule="evenodd" clip-rule="evenodd" fill="#909E4F" d="M376.1,654.7c3,11.2,6,22.4,9,33.5
		c-5.8,4.3-11.5,4.1-17.3,0C370.6,677.1,373.4,665.9,376.1,654.7"/>
	<path id="XMLID_154_" fill-rule="evenodd" clip-rule="evenodd" fill="#C0CB78" d="M374,691.2L374,691.2L374,691.2
		c-0.1,0-0.2,0-0.3-0.1l0,0c-0.1,0-0.1,0-0.2-0.1l0,0c-0.1,0-0.2,0-0.2-0.1l0,0c-0.1,0-0.1,0-0.2-0.1l0,0c-0.1,0-0.2-0.1-0.2-0.1
		l0,0c-0.1,0-0.1,0-0.2-0.1l0,0c-0.1,0-0.2,0-0.2-0.1l0,0c-0.1,0-0.2-0.1-0.2-0.1l0,0c-0.1,0-0.2-0.1-0.2-0.1l0,0
		c-0.1,0-0.1-0.1-0.2-0.1l0,0c-0.1,0-0.2-0.1-0.2-0.1l0,0c-0.1,0-0.2-0.1-0.2-0.1l0,0c-0.1,0-0.2-0.1-0.2-0.1l0,0
		c-0.1,0-0.2-0.1-0.2-0.1l0,0h0c-0.1,0-0.2-0.1-0.2-0.1l0,0c-0.1,0-0.2-0.1-0.2-0.1l0,0c-0.1,0-0.2-0.1-0.2-0.1l0,0
		c-0.1-0.1-0.2-0.1-0.2-0.2l0,0c-0.1,0-0.2-0.1-0.3-0.2l0,0c-0.1-0.1-0.2-0.1-0.3-0.2l0,0c-0.1,0-0.2-0.1-0.3-0.2l0,0
		c-0.1-0.1-0.2-0.1-0.3-0.2l0,0c-0.1-0.1-0.2-0.1-0.3-0.2c2.8-11.2,5.6-22.4,8.3-33.5L374,691.2z"/>
	<path id="XMLID_153_" fill-rule="evenodd" clip-rule="evenodd" fill="#909E4F" d="M376.2,652.8c2.7,9.4,5.4,18.8,8.2,28.2
		c-5.2,3.6-10.5,3.4-15.7,0C371.1,671.6,373.6,662.2,376.2,652.8"/>
	<path id="XMLID_152_" fill-rule="evenodd" clip-rule="evenodd" fill="#C0CB78" d="M372.9,683.1c-1.4-0.4-2.9-1.1-4.3-2.1
		c2.5-9.4,5-18.8,7.6-28.2L372.9,683.1z"/>
	<path id="XMLID_151_" fill-rule="evenodd" clip-rule="evenodd" fill="#909E4F" d="M376.2,648.7c2.2,7.4,4.4,14.7,6.6,22.1
		c-4.3,2.8-8.5,2.7-12.8,0C372.1,663.5,374.2,656.1,376.2,648.7"/>
	<path id="XMLID_150_" fill-rule="evenodd" clip-rule="evenodd" fill="#C0CB78" d="M373.2,672.4c-1.2-0.4-1.9-0.8-3.1-1.5
		c2-7.4,4.1-14.7,6.1-22.1L373.2,672.4z"/>
	<path id="XMLID_149_" fill-rule="evenodd" clip-rule="evenodd" fill="#736250" d="M297.6,792.6V808c0,2.4-4.8,2.6-4.8,0v-15.4
		l2.4,0.1L297.6,792.6z"/>
	<path id="XMLID_148_" fill-rule="evenodd" clip-rule="evenodd" fill="#909E4F" d="M294,740.9c4.3,16.1,8.6,32.3,13,48.4
		c-8.3,6.2-16.7,5.9-25,0C285.9,773.2,289.9,757.1,294,740.9"/>
	<path id="XMLID_147_" fill-rule="evenodd" clip-rule="evenodd" fill="#C0CB78" d="M290.9,793.5L290.9,793.5L290.9,793.5
		c-0.2,0-0.3-0.1-0.4-0.1l-0.1,0c-0.1,0-0.2,0-0.3-0.1l-0.1,0c-0.1,0-0.2-0.1-0.3-0.1l-0.1,0c-0.1,0-0.2,0-0.3-0.1l0,0
		c-0.1,0-0.2-0.1-0.3-0.1l0,0c-0.1,0-0.2-0.1-0.3-0.1l0,0c-0.1,0-0.2-0.1-0.3-0.1l0,0c-0.1,0-0.2-0.1-0.3-0.1l0,0
		c-0.1,0-0.2-0.1-0.3-0.1l0,0c-0.1,0-0.2-0.1-0.3-0.1l-0.1,0c-0.1,0-0.2-0.1-0.3-0.2l-0.1,0c-0.1-0.1-0.2-0.1-0.3-0.2l-0.1,0
		c-0.1,0-0.2-0.1-0.3-0.2l0,0c-0.1-0.1-0.2-0.1-0.4-0.2l0,0h0c-0.1-0.1-0.2-0.1-0.4-0.2l0,0c-0.1-0.1-0.2-0.1-0.4-0.2l0,0
		c-0.1-0.1-0.2-0.1-0.4-0.2l0,0c-0.1-0.1-0.2-0.1-0.4-0.2l0,0c-0.1-0.1-0.2-0.1-0.4-0.2l0,0c-0.1-0.1-0.2-0.2-0.4-0.2l0,0
		c-0.1-0.1-0.2-0.1-0.4-0.2l0,0c-0.1-0.1-0.2-0.2-0.4-0.2l0,0c-0.1-0.1-0.2-0.2-0.4-0.3c4-16.1,8-32.3,12-48.4L290.9,793.5z"/>
	<path id="XMLID_146_" fill-rule="evenodd" clip-rule="evenodd" fill="#909E4F" d="M294,738.2c3.9,13.6,7.9,27.1,11.8,40.6
		c-7.6,5.2-15.1,4.9-22.7,0C286.7,765.3,290.4,751.7,294,738.2"/>
	<path id="XMLID_145_" fill-rule="evenodd" clip-rule="evenodd" fill="#C0CB78" d="M289.3,781.8c-2.1-0.6-4.2-1.6-6.3-3
		c3.6-13.5,7.3-27.1,10.9-40.6L289.3,781.8z"/>
	<path id="XMLID_144_" fill-rule="evenodd" clip-rule="evenodd" fill="#909E4F" d="M294.1,732.3c3.2,10.7,6.4,21.3,9.6,31.9
		c-6.1,4.1-12.3,3.9-18.4,0C288.2,753.6,291.1,743,294.1,732.3"/>
	<path id="XMLID_143_" fill-rule="evenodd" clip-rule="evenodd" fill="#C0CB78" d="M289.7,766.4c-1.7-0.5-2.8-1.1-4.5-2.2
		c2.9-10.6,5.9-21.3,8.9-31.9L289.7,766.4z"/>
	<path id="XMLID_142_" fill-rule="evenodd" clip-rule="evenodd" fill="#736250" d="M342.6,767.5v15.4c0,2.4-4.8,2.6-4.8,0v-15.4
		l2.4,0.1L342.6,767.5z"/>
	<path id="XMLID_141_" fill-rule="evenodd" clip-rule="evenodd" fill="#909E4F" d="M338.9,715.8c4.3,16.1,8.6,32.3,13,48.4
		c-8.3,6.2-16.7,5.9-25,0C330.9,748.1,334.9,731.9,338.9,715.8"/>
	<path id="XMLID_140_" fill-rule="evenodd" clip-rule="evenodd" fill="#C0CB78" d="M335.9,768.4L335.9,768.4L335.9,768.4
		c-0.2,0-0.3-0.1-0.4-0.1l-0.1,0c-0.1,0-0.2,0-0.3-0.1l-0.1,0c-0.1,0-0.2-0.1-0.3-0.1l-0.1,0c-0.1,0-0.2,0-0.3-0.1l0,0
		c-0.1,0-0.2-0.1-0.3-0.1l0,0c-0.1,0-0.2-0.1-0.3-0.1l0,0c-0.1,0-0.2-0.1-0.3-0.1l0,0c-0.1,0-0.2-0.1-0.3-0.1l0,0
		c-0.1,0-0.2-0.1-0.3-0.1l0,0c-0.1,0-0.2-0.1-0.3-0.1l-0.1,0c-0.1,0-0.2-0.1-0.3-0.2l-0.1,0c-0.1-0.1-0.2-0.1-0.3-0.2l-0.1,0
		c-0.1,0-0.2-0.1-0.3-0.2l0,0c-0.1-0.1-0.2-0.1-0.4-0.2l0,0h0c-0.1-0.1-0.2-0.1-0.4-0.2l0,0c-0.1-0.1-0.2-0.1-0.4-0.2l0,0
		c-0.1-0.1-0.2-0.1-0.4-0.2l0,0c-0.1-0.1-0.2-0.1-0.4-0.2l0,0c-0.1-0.1-0.2-0.1-0.4-0.2l0,0c-0.1-0.1-0.2-0.2-0.4-0.2l0,0
		c-0.1-0.1-0.2-0.1-0.4-0.2l0,0c-0.1-0.1-0.2-0.2-0.4-0.2l0,0c-0.1-0.1-0.2-0.2-0.4-0.3c4-16.1,8-32.3,12-48.4L335.9,768.4z"/>
	<path id="XMLID_139_" fill-rule="evenodd" clip-rule="evenodd" fill="#909E4F" d="M339,713.1c3.9,13.6,7.9,27.1,11.8,40.6
		c-7.6,5.2-15.1,4.9-22.7,0C331.7,740.2,335.3,726.6,339,713.1"/>
	<path id="XMLID_138_" fill-rule="evenodd" clip-rule="evenodd" fill="#C0CB78" d="M334.3,756.7c-2.1-0.6-4.2-1.6-6.3-3
		c3.6-13.5,7.3-27.1,10.9-40.6L334.3,756.7z"/>
	<path id="XMLID_137_" fill-rule="evenodd" clip-rule="evenodd" fill="#909E4F" d="M339.1,707.2c3.2,10.7,6.4,21.3,9.6,31.9
		c-6.1,4.1-12.3,3.9-18.4,0C333.2,728.5,336.1,717.8,339.1,707.2"/>
	<path id="XMLID_136_" fill-rule="evenodd" clip-rule="evenodd" fill="#C0CB78" d="M334.7,741.3c-1.7-0.5-2.8-1.1-4.5-2.2
		c2.9-10.6,5.9-21.3,8.9-31.9L334.7,741.3z"/>
	<path id="XMLID_135_" fill-rule="evenodd" clip-rule="evenodd" fill="#736250" d="M389.5,740.2v17.3c0,2.7-5.4,2.9-5.4,0v-17.3
		l2.7,0.1L389.5,740.2z"/>
	<path id="XMLID_134_" fill-rule="evenodd" clip-rule="evenodd" fill="#909E4F" d="M385.4,682.3c4.9,18.1,9.7,36.2,14.6,54.3
		c-9.3,7-18.7,6.6-28,0C376.4,718.5,380.9,700.4,385.4,682.3"/>
	<path id="XMLID_133_" fill-rule="evenodd" clip-rule="evenodd" fill="#C0CB78" d="M382,741.3L382,741.3L382,741.3
		c-0.2,0-0.3-0.1-0.4-0.1l-0.1,0c-0.1,0-0.2-0.1-0.4-0.1l-0.1,0c-0.1,0-0.3-0.1-0.4-0.1l-0.1,0c-0.1,0-0.2-0.1-0.4-0.1l-0.1,0
		c-0.1-0.1-0.3-0.1-0.4-0.1l-0.1,0c-0.1,0-0.2-0.1-0.4-0.1l-0.1,0c-0.1,0-0.3-0.1-0.4-0.1l-0.1,0c-0.1-0.1-0.3-0.1-0.4-0.1l-0.1,0
		c-0.1-0.1-0.3-0.1-0.4-0.1l-0.1,0c-0.1,0-0.2-0.1-0.4-0.1l-0.1,0c-0.1-0.1-0.3-0.1-0.4-0.2l-0.1,0c-0.1-0.1-0.3-0.1-0.4-0.2l-0.1,0
		c-0.1-0.1-0.3-0.1-0.4-0.2l0,0c-0.1-0.1-0.3-0.1-0.4-0.2l0,0h0c-0.2-0.1-0.3-0.1-0.4-0.2l0,0c-0.2-0.1-0.3-0.1-0.4-0.2l0,0
		c-0.1-0.1-0.3-0.1-0.4-0.2l0,0c-0.1-0.1-0.3-0.2-0.4-0.3l0,0c-0.1-0.1-0.3-0.2-0.4-0.3l0,0c-0.1-0.1-0.3-0.2-0.4-0.3l0,0
		c-0.1-0.1-0.3-0.2-0.4-0.3l0,0c-0.1-0.1-0.3-0.2-0.4-0.3l0,0c-0.1-0.1-0.3-0.2-0.4-0.3c4.5-18.1,9-36.2,13.5-54.3L382,741.3z"/>
	<path id="XMLID_132_" fill-rule="evenodd" clip-rule="evenodd" fill="#909E4F" d="M385.4,679.2c4.4,15.2,8.8,30.4,13.2,45.6
		c-8.5,5.9-17,5.5-25.5,0C377.3,709.6,381.4,694.4,385.4,679.2"/>
	<path id="XMLID_131_" fill-rule="evenodd" clip-rule="evenodd" fill="#C0CB78" d="M380.2,728.2c-2.3-0.7-4.7-1.8-7-3.4
		c4.1-15.2,8.2-30.4,12.2-45.6L380.2,728.2z"/>
	<path id="XMLID_130_" fill-rule="evenodd" clip-rule="evenodd" fill="#909E4F" d="M385.5,672.6c3.6,12,7.1,23.9,10.7,35.8
		c-6.9,4.6-13.8,4.3-20.7,0C378.9,696.5,382.2,684.6,385.5,672.6"/>
	<path id="XMLID_129_" fill-rule="evenodd" clip-rule="evenodd" fill="#C0CB78" d="M380.6,710.9c-1.9-0.6-3.1-1.3-5-2.5
		c3.3-11.9,6.6-23.9,9.9-35.8L380.6,710.9z"/>
	<path id="XMLID_128_" fill-rule="evenodd" clip-rule="evenodd" fill="#736250" d="M427.7,722.6v10.7c0,1.7-3.3,1.8-3.3,0v-10.7
		l1.7,0.1L427.7,722.6z"/>
	<path id="XMLID_127_" fill-rule="evenodd" clip-rule="evenodd" fill="#909E4F" d="M425.2,686.8c3,11.2,6,22.4,9,33.5
		c-5.8,4.3-11.5,4.1-17.3,0C419.7,709.1,422.4,697.9,425.2,686.8"/>
	<path id="XMLID_126_" fill-rule="evenodd" clip-rule="evenodd" fill="#C0CB78" d="M423.1,723.2L423.1,723.2L423.1,723.2
		c-0.1,0-0.2,0-0.3-0.1l0,0c-0.1,0-0.1,0-0.2-0.1l0,0c-0.1,0-0.2,0-0.2-0.1l0,0c-0.1,0-0.1,0-0.2-0.1l0,0c-0.1,0-0.2-0.1-0.2-0.1
		l0,0c-0.1,0-0.1,0-0.2-0.1l0,0c-0.1,0-0.2,0-0.2-0.1l0,0c-0.1,0-0.2-0.1-0.2-0.1l0,0c-0.1,0-0.2-0.1-0.2-0.1l0,0
		c-0.1,0-0.1-0.1-0.2-0.1l0,0c-0.1,0-0.2-0.1-0.2-0.1l0,0c-0.1,0-0.2-0.1-0.2-0.1l0,0c-0.1,0-0.2-0.1-0.2-0.1l0,0
		c-0.1,0-0.2-0.1-0.2-0.1l0,0h0c-0.1,0-0.2-0.1-0.2-0.1l0,0c-0.1,0-0.2-0.1-0.2-0.1l0,0c-0.1,0-0.2-0.1-0.2-0.1l0,0
		c-0.1-0.1-0.2-0.1-0.2-0.2l0,0c-0.1,0-0.2-0.1-0.3-0.2l0,0c-0.1-0.1-0.2-0.1-0.3-0.2l0,0c-0.1,0-0.2-0.1-0.3-0.2l0,0
		c-0.1-0.1-0.2-0.1-0.3-0.2l0,0c-0.1-0.1-0.2-0.1-0.3-0.2c2.8-11.2,5.6-22.4,8.3-33.5L423.1,723.2z"/>
	<path id="XMLID_125_" fill-rule="evenodd" clip-rule="evenodd" fill="#909E4F" d="M425.2,684.9c2.7,9.4,5.4,18.8,8.2,28.2
		c-5.2,3.6-10.5,3.4-15.7,0C420.2,703.7,422.7,694.3,425.2,684.9"/>
	<path id="XMLID_124_" fill-rule="evenodd" clip-rule="evenodd" fill="#C0CB78" d="M422,715.1c-1.4-0.4-2.9-1.1-4.3-2.1
		c2.5-9.4,5-18.8,7.6-28.2L422,715.1z"/>
	<path id="XMLID_123_" fill-rule="evenodd" clip-rule="evenodd" fill="#909E4F" d="M425.3,680.8c2.2,7.4,4.4,14.7,6.6,22.1
		c-4.3,2.8-8.5,2.7-12.8,0C421.2,695.5,423.2,688.2,425.3,680.8"/>
	<path id="XMLID_122_" fill-rule="evenodd" clip-rule="evenodd" fill="#C0CB78" d="M422.3,704.4c-1.2-0.4-1.9-0.8-3.1-1.5
		c2-7.4,4.1-14.7,6.1-22.1L422.3,704.4z"/>
	<path id="XMLID_121_" fill-rule="evenodd" clip-rule="evenodd" fill="#736250" d="M899.1,672.7L899.1,672.7c-0.3,0-0.6,0.2-0.8,0.5
		c-0.1-0.3-0.3-0.5-0.6-0.5c-0.4,0-0.7,0.3-0.7,0.7v27.2c0,2.1,3,2.4,3,0v-26.9C900,673.2,899.6,672.7,899.1,672.7"/>
	<path id="XMLID_120_" fill-rule="evenodd" clip-rule="evenodd" fill="#909E4F" d="M898.7,650.8c-8.5,0-15.3,6.9-15.3,15.3
		c0,8.5,6.9,15.3,15.3,15.3c8.5,0,15.3-6.9,15.3-15.3C914,657.6,907.1,650.8,898.7,650.8"/>
	<path id="XMLID_119_" fill-rule="evenodd" clip-rule="evenodd" fill="#C0CB78" d="M895.2,651.2c-6.8,1.6-11.8,7.7-11.8,14.9
		c0,6.3,3.8,11.7,9.2,14.1c6.8-1.6,11.8-7.7,11.8-14.9C904.4,659,900.6,653.6,895.2,651.2"/>
	<path id="XMLID_118_" fill-rule="evenodd" clip-rule="evenodd" fill="#736250" d="M880.7,695.9L880.7,695.9c-0.2,0-0.4,0.1-0.5,0.3
		c-0.1-0.2-0.2-0.3-0.4-0.3c-0.2,0-0.4,0.2-0.4,0.4v16.4c0,1.2,1.8,1.5,1.8,0v-16.3C881.3,696.1,881,695.9,880.7,695.9"/>
	<path id="XMLID_117_" fill-rule="evenodd" clip-rule="evenodd" fill="#909E4F" d="M880.4,682.6c-5.1,0-9.3,4.2-9.3,9.3
		c0,5.1,4.2,9.3,9.3,9.3c5.1,0,9.3-4.2,9.3-9.3C889.7,686.7,885.5,682.6,880.4,682.6"/>
	<path id="XMLID_116_" fill-rule="evenodd" clip-rule="evenodd" fill="#C0CB78" d="M878.3,682.8c-4.1,1-7.2,4.6-7.2,9
		c0,3.8,2.3,7.1,5.6,8.5c4.1-1,7.2-4.6,7.2-9C883.9,687.5,881.6,684.2,878.3,682.8"/>
	<path id="XMLID_115_" fill-rule="evenodd" clip-rule="evenodd" fill="#736250" d="M927.2,701.6L927.2,701.6c-0.2,0-0.4,0.1-0.5,0.3
		c-0.1-0.2-0.2-0.3-0.4-0.3c-0.2,0-0.4,0.2-0.4,0.4v16.4c0,1.2,1.8,1.5,1.8,0v-16.3C927.7,701.9,927.5,701.6,927.2,701.6"/>
	<path id="XMLID_114_" fill-rule="evenodd" clip-rule="evenodd" fill="#909E4F" d="M926.9,688.3c-5.1,0-9.3,4.2-9.3,9.3
		c0,5.1,4.2,9.3,9.3,9.3c5.1,0,9.3-4.2,9.3-9.3C936.2,692.5,932,688.3,926.9,688.3"/>
	<path id="XMLID_113_" fill-rule="evenodd" clip-rule="evenodd" fill="#C0CB78" d="M924.8,688.6c-4.1,1-7.2,4.6-7.2,9
		c0,3.8,2.3,7.1,5.6,8.5c4.1-1,7.2-4.6,7.2-9C930.4,693.3,928.1,690,924.8,688.6"/>
	<path id="XMLID_112_" fill-rule="evenodd" clip-rule="evenodd" fill="#736250" d="M909.5,713.2L909.5,713.2c-0.2,0-0.4,0.1-0.5,0.3
		c-0.1-0.2-0.2-0.3-0.4-0.3c-0.2,0-0.4,0.2-0.4,0.4V730c0,1.2,1.8,1.5,1.8,0v-16.3C910,713.5,909.8,713.2,909.5,713.2"/>
	<path id="XMLID_111_" fill-rule="evenodd" clip-rule="evenodd" fill="#909E4F" d="M909.2,699.9c-5.1,0-9.3,4.2-9.3,9.3
		c0,5.1,4.2,9.3,9.3,9.3c5.1,0,9.3-4.2,9.3-9.3C918.5,704.1,914.3,699.9,909.2,699.9"/>
	<path id="XMLID_110_" fill-rule="evenodd" clip-rule="evenodd" fill="#C0CB78" d="M907.1,700.2c-4.1,1-7.2,4.6-7.2,9
		c0,3.8,2.3,7.1,5.6,8.5c4.1-1,7.2-4.6,7.2-9C912.7,704.9,910.4,701.6,907.1,700.2"/>
	<path id="XMLID_109_" fill-rule="evenodd" clip-rule="evenodd" fill="#736250" d="M772.7,780.3L772.7,780.3c-0.4,0-0.7,0.2-0.9,0.5
		c-0.1-0.3-0.4-0.5-0.7-0.5c-0.4,0-0.8,0.3-0.8,0.8v31.8c0,2.4,3.5,2.9,3.5,0v-31.5C773.8,780.8,773.3,780.3,772.7,780.3"/>
	<path id="XMLID_108_" fill-rule="evenodd" clip-rule="evenodd" fill="#909E4F" d="M772.1,754.6c-9.9,0-17.9,8-17.9,17.9
		c0,9.9,8,18,17.9,18c9.9,0,17.9-8,17.9-18C790.1,762.6,782.1,754.6,772.1,754.6"/>
	<path id="XMLID_107_" fill-rule="evenodd" clip-rule="evenodd" fill="#C0CB78" d="M768.1,755c-8,1.8-13.9,9-13.9,17.5
		c0,7.4,4.5,13.7,10.8,16.5c7.9-1.9,13.9-9,13.9-17.5C778.9,764.1,774.4,757.8,768.1,755"/>
	<path id="XMLID_106_" fill-rule="evenodd" clip-rule="evenodd" fill="#736250" d="M815.4,791.5L815.4,791.5c-0.3,0-0.6,0.2-0.8,0.5
		c-0.1-0.3-0.3-0.5-0.6-0.5c-0.4,0-0.7,0.3-0.7,0.7v27.2c0,2.1,3,2.4,3,0v-26.9C816.3,791.9,815.9,791.5,815.4,791.5"/>
	<path id="XMLID_105_" fill-rule="evenodd" clip-rule="evenodd" fill="#909E4F" d="M815,769.5c-8.5,0-15.3,6.9-15.3,15.3
		c0,8.5,6.9,15.3,15.3,15.3c8.5,0,15.3-6.9,15.3-15.3C830.3,776.4,823.4,769.5,815,769.5"/>
	<path id="XMLID_104_" fill-rule="evenodd" clip-rule="evenodd" fill="#C0CB78" d="M811.5,769.9c-6.8,1.6-11.8,7.7-11.8,14.9
		c0,6.3,3.8,11.7,9.2,14.1c6.8-1.6,11.8-7.7,11.8-14.9C820.7,777.7,816.9,772.3,811.5,769.9"/>
	<path id="XMLID_103_" fill-rule="evenodd" clip-rule="evenodd" fill="#736250" d="M794.6,815.3L794.6,815.3c-0.2,0-0.4,0.1-0.5,0.3
		c-0.1-0.2-0.2-0.3-0.4-0.3c-0.2,0-0.4,0.2-0.4,0.4v16.4c0,1.2,1.8,1.5,1.8,0v-16.3C795.2,815.6,794.9,815.3,794.6,815.3"/>
	<path id="XMLID_102_" fill-rule="evenodd" clip-rule="evenodd" fill="#909E4F" d="M794.4,802c-5.1,0-9.3,4.2-9.3,9.3
		c0,5.1,4.2,9.3,9.3,9.3c5.1,0,9.3-4.2,9.3-9.3C803.7,806.2,799.5,802,794.4,802"/>
	<path id="XMLID_101_" fill-rule="evenodd" clip-rule="evenodd" fill="#C0CB78" d="M792.3,802.3c-4.1,1-7.2,4.6-7.2,9
		c0,3.8,2.3,7.1,5.6,8.5c4.1-1,7.2-4.6,7.2-9C797.9,807,795.6,803.7,792.3,802.3"/>
	<path id="XMLID_100_" fill-rule="evenodd" clip-rule="evenodd" fill="#736250" d="M828.2,834.1L828.2,834.1c-0.2,0-0.4,0.1-0.5,0.3
		c-0.1-0.2-0.2-0.3-0.4-0.3c-0.2,0-0.4,0.2-0.4,0.4v16.4c0,1.2,1.8,1.5,1.8,0v-16.3C828.8,834.3,828.5,834.1,828.2,834.1"/>
	<path id="XMLID_99_" fill-rule="evenodd" clip-rule="evenodd" fill="#909E4F" d="M828,820.8c-5.1,0-9.3,4.2-9.3,9.3
		c0,5.1,4.2,9.3,9.3,9.3c5.1,0,9.3-4.2,9.3-9.3C837.2,824.9,833.1,820.8,828,820.8"/>
	<path id="XMLID_98_" fill-rule="evenodd" clip-rule="evenodd" fill="#C0CB78" d="M825.9,821c-4.1,1-7.2,4.6-7.2,9
		c0,3.8,2.3,7.1,5.6,8.5c4.1-1,7.2-4.6,7.2-9C831.4,825.7,829.1,822.5,825.9,821"/>
	<path id="XMLID_97_" fill-rule="evenodd" clip-rule="evenodd" fill="#736250" d="M852.8,811.7L852.8,811.7c-0.2,0-0.4,0.1-0.5,0.3
		c-0.1-0.2-0.2-0.3-0.4-0.3c-0.2,0-0.4,0.2-0.4,0.4v16.4c0,1.2,1.8,1.5,1.8,0v-16.3C853.4,812,853.1,811.7,852.8,811.7"/>
	<path id="XMLID_96_" fill-rule="evenodd" clip-rule="evenodd" fill="#909E4F" d="M852.5,798.5c-5.1,0-9.3,4.2-9.3,9.3
		c0,5.1,4.2,9.3,9.3,9.3c5.1,0,9.3-4.2,9.3-9.3C861.8,802.6,857.6,798.5,852.5,798.5"/>
	<path id="XMLID_95_" fill-rule="evenodd" clip-rule="evenodd" fill="#C0CB78" d="M850.4,798.7c-4.1,1-7.2,4.6-7.2,9
		c0,3.8,2.3,7.1,5.6,8.5c4.1-1,7.2-4.6,7.2-9C856,803.4,853.7,800.1,850.4,798.7"/>
	<polygon id="XMLID_94_" fill-rule="evenodd" clip-rule="evenodd" fill="#B1B196" points="731.5,333.1 731.5,360.7 836.8,299.9 
		836.6,272.4 	"/>
	<polygon id="XMLID_93_" fill-rule="evenodd" clip-rule="evenodd" fill="#6B7681" points="731.5,346.9 731.5,360.7 836.7,299.9 
		836.6,286.2 	"/>
	<polygon id="XMLID_92_" fill-rule="evenodd" clip-rule="evenodd" fill="#E3E2C9" points="731.5,333.1 731.5,360.7 674.8,328 
		674.8,300.4 	"/>
	<polygon id="XMLID_91_" fill-rule="evenodd" clip-rule="evenodd" fill="#959BA3" points="731.5,346.9 731.5,360.7 674.8,328 
		674.8,314.2 	"/>
	<polygon id="XMLID_90_" fill-rule="evenodd" clip-rule="evenodd" fill="#666767" points="836.6,272.4 731.5,333.1 674.8,300.4 
		780.2,239.5 836.6,271.9 	"/>
	<polygon id="XMLID_89_" fill-rule="evenodd" clip-rule="evenodd" fill="#F2F3F4" points="728.6,309.5 738.5,315.3 730.8,316.3 
		720.8,310.4 	"/>
	<polygon id="XMLID_88_" fill-rule="evenodd" clip-rule="evenodd" fill="#8D8D8B" points="720.8,310.4 720.8,314 730.8,319.8 
		730.8,316.3 	"/>
	<polygon id="XMLID_87_" fill-rule="evenodd" clip-rule="evenodd" fill="#818182" points="730.8,316.3 730.8,319.8 738.5,315.3 	"/>
	<polygon id="XMLID_86_" fill-rule="evenodd" clip-rule="evenodd" fill="#F2F3F4" points="742.4,301.4 752.4,307.2 744.7,308.2 
		734.7,302.3 	"/>
	<polygon id="XMLID_85_" fill-rule="evenodd" clip-rule="evenodd" fill="#8D8D8B" points="734.7,302.3 734.7,305.9 744.7,311.7 
		744.7,308.2 	"/>
	<polygon id="XMLID_84_" fill-rule="evenodd" clip-rule="evenodd" fill="#818182" points="744.7,308.2 744.7,311.7 752.4,307.2 	"/>
	<polygon id="XMLID_83_" fill-rule="evenodd" clip-rule="evenodd" fill="#F2F3F4" points="756.3,293.3 766.3,299.1 758.6,300 
		748.6,294.2 	"/>
	<polygon id="XMLID_82_" fill-rule="evenodd" clip-rule="evenodd" fill="#8D8D8B" points="748.6,294.2 748.6,297.8 758.6,303.6 
		758.6,300 	"/>
	<polygon id="XMLID_81_" fill-rule="evenodd" clip-rule="evenodd" fill="#818182" points="758.6,300 758.6,303.6 766.3,299.1 	"/>
	<polygon id="XMLID_80_" fill-rule="evenodd" clip-rule="evenodd" fill="#F2F3F4" points="775.1,282.6 785,288.4 777.3,289.4 
		767.3,283.6 	"/>
	<polygon id="XMLID_79_" fill-rule="evenodd" clip-rule="evenodd" fill="#8D8D8B" points="767.3,283.6 767.3,287.1 777.3,292.9 
		777.3,289.4 	"/>
	<polygon id="XMLID_78_" fill-rule="evenodd" clip-rule="evenodd" fill="#818182" points="777.3,289.4 777.3,292.9 785,288.4 	"/>
	<polygon id="XMLID_77_" fill-rule="evenodd" clip-rule="evenodd" fill="#F2F3F4" points="789,274.5 798.9,280.3 791.2,281.3 
		781.2,275.5 	"/>
	<polygon id="XMLID_76_" fill-rule="evenodd" clip-rule="evenodd" fill="#8D8D8B" points="781.2,275.5 781.2,279 791.2,284.8 
		791.2,281.3 	"/>
	<polygon id="XMLID_75_" fill-rule="evenodd" clip-rule="evenodd" fill="#818182" points="791.2,281.3 791.2,284.8 798.9,280.3 	"/>
	<polygon id="XMLID_74_" fill-rule="evenodd" clip-rule="evenodd" fill="#F2F3F4" points="802.9,266.4 812.8,272.2 805.1,273.2 
		795.1,267.3 	"/>
	<polygon id="XMLID_73_" fill-rule="evenodd" clip-rule="evenodd" fill="#8D8D8B" points="795.1,267.3 795.1,270.9 805.1,276.7 
		805.1,273.2 	"/>
	<polygon id="XMLID_72_" fill-rule="evenodd" clip-rule="evenodd" fill="#818182" points="805.1,273.2 805.1,276.7 812.8,272.2 	"/>
	<polygon id="XMLID_71_" fill-rule="evenodd" clip-rule="evenodd" fill="#F2F3F4" points="703.7,295.1 713.7,300.9 705.9,301.8 
		695.9,296 	"/>
	<polygon id="XMLID_70_" fill-rule="evenodd" clip-rule="evenodd" fill="#8D8D8B" points="695.9,296 695.9,299.6 705.9,305.4 
		705.9,301.8 	"/>
	<polygon id="XMLID_69_" fill-rule="evenodd" clip-rule="evenodd" fill="#818182" points="705.9,301.8 705.9,305.4 713.7,300.9 	"/>
	<polygon id="XMLID_68_" fill-rule="evenodd" clip-rule="evenodd" fill="#F2F3F4" points="717.6,287 727.5,292.8 719.8,293.7 
		709.8,287.9 	"/>
	<polygon id="XMLID_67_" fill-rule="evenodd" clip-rule="evenodd" fill="#8D8D8B" points="709.8,287.9 709.8,291.5 719.8,297.3 
		719.8,293.7 	"/>
	<polygon id="XMLID_66_" fill-rule="evenodd" clip-rule="evenodd" fill="#818182" points="719.8,293.7 719.8,297.3 727.5,292.8 	"/>
	<polygon id="XMLID_65_" fill-rule="evenodd" clip-rule="evenodd" fill="#F2F3F4" points="731.5,278.9 741.4,284.7 733.7,285.6 
		723.7,279.8 	"/>
	<polygon id="XMLID_64_" fill-rule="evenodd" clip-rule="evenodd" fill="#8D8D8B" points="723.7,279.8 723.7,283.3 733.7,289.2 
		733.7,285.6 	"/>
	<polygon id="XMLID_63_" fill-rule="evenodd" clip-rule="evenodd" fill="#818182" points="733.7,285.6 733.7,289.2 741.4,284.7 	"/>
	<polygon id="XMLID_62_" fill-rule="evenodd" clip-rule="evenodd" fill="#F2F3F4" points="750.2,268.2 760.2,274 752.4,274.9 
		742.5,269.1 	"/>
	<polygon id="XMLID_61_" fill-rule="evenodd" clip-rule="evenodd" fill="#8D8D8B" points="742.5,269.1 742.5,272.7 752.4,278.5 
		752.4,274.9 	"/>
	<polygon id="XMLID_60_" fill-rule="evenodd" clip-rule="evenodd" fill="#818182" points="752.4,274.9 752.4,278.5 760.2,274 	"/>
	<polygon id="XMLID_59_" fill-rule="evenodd" clip-rule="evenodd" fill="#F2F3F4" points="764.1,260.1 774.1,265.9 766.3,266.8 
		756.3,261 	"/>
	<polygon id="XMLID_58_" fill-rule="evenodd" clip-rule="evenodd" fill="#8D8D8B" points="756.3,261 756.3,264.6 766.3,270.4 
		766.3,266.8 	"/>
	<polygon id="XMLID_57_" fill-rule="evenodd" clip-rule="evenodd" fill="#818182" points="766.3,266.8 766.3,270.4 774.1,265.9 	"/>
	<polygon id="XMLID_56_" fill-rule="evenodd" clip-rule="evenodd" fill="#F2F3F4" points="778,252 787.9,257.8 780.2,258.7 
		770.2,252.9 	"/>
	<polygon id="XMLID_55_" fill-rule="evenodd" clip-rule="evenodd" fill="#8D8D8B" points="770.2,252.9 770.2,256.5 780.2,262.3 
		780.2,258.7 	"/>
	<polygon id="XMLID_54_" fill-rule="evenodd" clip-rule="evenodd" fill="#818182" points="780.2,258.7 780.2,262.3 787.9,257.8 	"/>
	<path fill-rule="evenodd" clip-rule="evenodd" fill="#6B7681" d="M743.7,333.9v3.7l3.9-2.2v-3.7L743.7,333.9z M748.6,326.4v3.7
		l3.9-2.2v-3.7L748.6,326.4z M748.6,331.1v3.7l3.9-2.2v-3.7L748.6,331.1z M743.7,329.2v3.7l3.9-2.2V327L743.7,329.2z"/>
	<path fill-rule="evenodd" clip-rule="evenodd" fill="#6B7681" d="M761.1,323.9v3.7l3.9-2.2v-3.7L761.1,323.9z M766,316.4v3.7
		l3.9-2.2v-3.7L766,316.4z M766,321.1v3.7l3.9-2.2v-3.7L766,321.1z M761.1,319.2v3.7l3.9-2.2v-3.7L761.1,319.2z"/>
	<path fill-rule="evenodd" clip-rule="evenodd" fill="#6B7681" d="M778.5,313.8v3.7l3.9-2.2v-3.7L778.5,313.8z M783.4,306.3v3.7
		l3.9-2.2v-3.7L783.4,306.3z M783.4,311v3.7l3.9-2.2v-3.7L783.4,311z M778.5,309.1v3.7l3.9-2.2v-3.7L778.5,309.1z"/>
	<path fill-rule="evenodd" clip-rule="evenodd" fill="#6B7681" d="M796,303.8v3.7l3.9-2.2v-3.7L796,303.8z M800.8,296.3v3.7l3.9-2.2
		v-3.7L800.8,296.3z M800.8,301v3.7l3.9-2.2v-3.7L800.8,301z M796,299.1v3.7l3.9-2.2v-3.7L796,299.1z"/>
	<path fill-rule="evenodd" clip-rule="evenodd" fill="#6B7681" d="M813.4,293.8v3.7l3.9-2.2v-3.7L813.4,293.8z M818.2,286.3v3.7
		l3.9-2.2V284L818.2,286.3z M818.2,291v3.7l3.9-2.2v-3.7L818.2,291z M813.4,289.1v3.7l3.9-2.2v-3.7L813.4,289.1z"/>
	<path fill-rule="evenodd" clip-rule="evenodd" fill="#6B7681" d="M705.6,325.7v3.7l-3.9-2.2v-3.7L705.6,325.7z M700.8,318.2v3.7
		l-3.9-2.2V316L700.8,318.2z M700.8,322.9v3.7l-3.9-2.2v-3.7L700.8,322.9z M705.6,321v3.7l-3.9-2.2v-3.7L705.6,321z"/>
	<path fill-rule="evenodd" clip-rule="evenodd" fill="#6B7681" d="M688.2,315.7v3.7l-3.9-2.2v-3.7L688.2,315.7z M683.4,308.2v3.7
		l-3.9-2.2V306L683.4,308.2z M683.4,312.9v3.7l-3.9-2.2v-3.7L683.4,312.9z M688.2,311v3.7l-3.9-2.2v-3.7L688.2,311z"/>
	<path fill-rule="evenodd" clip-rule="evenodd" fill="#6B7681" d="M723,335.8v3.7l-3.9-2.2v-3.7L723,335.8z M718.2,328.3v3.7
		l-3.9-2.2V326L718.2,328.3z M718.2,333v3.7l-3.9-2.2v-3.7L718.2,333z M723,331.1v3.7l-3.9-2.2v-3.7L723,331.1z"/>
	<polygon id="XMLID_21_" fill-rule="evenodd" clip-rule="evenodd" fill="#CECDCC" points="813.4,218.3 813.4,328.3 811.4,327.2 
		811.4,219.6 	"/>
	<polygon id="XMLID_20_" fill-rule="evenodd" clip-rule="evenodd" fill="#B3B4B4" points="813.4,328.3 815.3,327.2 815.3,219.6 
		813.4,218.3 	"/>
	<polygon id="XMLID_19_" fill-rule="evenodd" clip-rule="evenodd" fill="#CECDCC" points="797.7,242.8 797.7,241 799.2,241.9 
		799.2,243.7 	"/>
	<polygon id="XMLID_18_" fill-rule="evenodd" clip-rule="evenodd" fill="#A3A3A3" points="829,226.5 829,224.7 799.2,241.9 
		799.2,243.7 	"/>
	<polygon id="XMLID_17_" fill-rule="evenodd" clip-rule="evenodd" fill="#B3B4B4" points="827.5,223.8 829,224.7 799.2,241.9 
		797.7,241 	"/>
	<polygon id="XMLID_16_" fill-rule="evenodd" clip-rule="evenodd" fill="#CECDCC" points="797.7,257.8 797.7,256.1 799.2,257 
		799.2,258.7 	"/>
	<polygon id="XMLID_15_" fill-rule="evenodd" clip-rule="evenodd" fill="#A3A3A3" points="829,241.5 829,239.8 799.2,257 
		799.2,258.7 	"/>
	<polygon id="XMLID_14_" fill-rule="evenodd" clip-rule="evenodd" fill="#B3B4B4" points="827.5,238.9 829,239.8 799.2,257 
		797.7,256.1 	"/>
	<path id="XMLID_13_" fill-rule="evenodd" clip-rule="evenodd" fill="#E6E7E8" d="M1090.3,420.1c-50.7-12.9-100.2-33-148.3-60.8
		c-47.2-27.3-93.2-62-137.7-104.4l-0.9,0.9c44.6,42.5,90.6,77.2,137.9,104.5c48.2,27.9,97.8,48,148.6,60.9L1090.3,420.1z"/>
	<path id="XMLID_12_" fill-rule="evenodd" clip-rule="evenodd" fill="#E6E7E8" d="M1090.3,404.6c-50.7-12.9-100.2-33-148.3-60.8
		c-47.2-27.3-93.2-62-137.7-104.4l-0.9,0.9c44.6,42.5,90.6,77.2,137.9,104.5c48.2,27.9,97.8,48,148.6,60.9L1090.3,404.6z"/>
	<path id="XMLID_11_" fill-rule="evenodd" clip-rule="evenodd" fill="#E6E7E8" d="M1110.3,407.5c-50.7-12.9-100.2-33-148.3-60.8
		c-47.2-27.3-93.2-62-137.7-104.4l-0.9,0.9c44.6,42.5,90.6,77.2,137.9,104.5c48.2,27.9,97.8,48,148.6,60.9L1110.3,407.5z"/>
	<path id="XMLID_10_" fill-rule="evenodd" clip-rule="evenodd" fill="#E6E7E8" d="M1110.3,392c-50.7-12.9-100.2-33-148.3-60.8
		c-47.2-27.3-93.2-62-137.7-104.4l-0.9,0.9c44.6,42.5,90.6,77.2,137.9,104.5c48.2,27.9,97.8,48,148.6,60.9L1110.3,392z"/>
	<polygon id="XMLID_9_" fill-rule="evenodd" clip-rule="evenodd" fill="#CECDCC" points="1097.5,384.3 1097.5,494.3 1095.5,493.2 
		1095.5,385.5 	"/>
	<polygon id="XMLID_8_" fill-rule="evenodd" clip-rule="evenodd" fill="#B3B4B4" points="1097.5,494.3 1099.4,493.2 1099.4,385.6 
		1097.5,384.3 	"/>
	<polygon id="XMLID_7_" fill-rule="evenodd" clip-rule="evenodd" fill="#CECDCC" points="1081.8,408.8 1081.8,407 1083.3,407.9 
		1083.3,409.7 	"/>
	<polygon id="XMLID_6_" fill-rule="evenodd" clip-rule="evenodd" fill="#A3A3A3" points="1113.1,392.5 1113.1,390.7 1083.3,407.9 
		1083.3,409.7 	"/>
	<polygon id="XMLID_5_" fill-rule="evenodd" clip-rule="evenodd" fill="#B3B4B4" points="1111.6,389.8 1113.1,390.7 1083.3,407.9 
		1081.8,407 	"/>
	<polygon id="XMLID_4_" fill-rule="evenodd" clip-rule="evenodd" fill="#CECDCC" points="1081.8,423.8 1081.8,422.1 1083.3,422.9 
		1083.3,424.7 	"/>
	<polygon id="XMLID_3_" fill-rule="evenodd" clip-rule="evenodd" fill="#A3A3A3" points="1113.1,407.5 1113.1,405.7 1083.3,422.9 
		1083.3,424.7 	"/>
	<polygon id="XMLID_2_" fill-rule="evenodd" clip-rule="evenodd" fill="#B3B4B4" points="1111.6,404.9 1113.1,405.7 1083.3,422.9 
		1081.8,422.1 	"/>
</g>
</svg>
